<?xml version="1.0" encoding="UTF-8" standalone="no"?>
<svg width="121px" height="114px" viewBox="0 0 121 114" version="1.1" xmlns="http://www.w3.org/2000/svg" xmlns:xlink="http://www.w3.org/1999/xlink" xmlns:sketch="http://www.bohemiancoding.com/sketch/ns">
    <!-- Generator: Sketch 3.2.2 (9983) - http://www.bohemiancoding.com/sketch -->
    <title>logo-vectorial-PANTONE 114-7C (1)</title>
    <desc>Created with Sketch.</desc>
    <defs></defs>
    <g id="Page-1" stroke="none" stroke-width="1" fill="none" fill-rule="evenodd" sketch:type="MSPage">
        <g id="logo-vectorial-PANTONE-114-7C-(1)" sketch:type="MSLayerGroup">
            <path d="M1.1826,93.8945 L1.1986,85.0425 L3.0606,83.1875 L8.5376,83.1975 L10.3926,85.0585 L10.3886,87.0615 L8.0446,87.0585 L8.0476,85.7045 L7.1606,84.8115 L4.3926,84.8085 L3.5216,85.6735 L3.5076,93.2765 L4.3766,94.1425 L7.1436,94.1475 L8.0326,93.2615 L8.0356,91.9885 L10.4196,91.9915 L10.4156,93.9125 L8.5546,95.7685 L3.0386,95.7555 L1.1826,93.8945 Z M2.7956,96.2015 L8.7956,96.2135 L10.7986,94.2155 L10.8056,91.5695 L7.5916,91.5635 L7.5896,92.9985 L6.8816,93.7025 L4.6556,93.7005 L3.9526,92.9925 L3.9636,85.9575 L4.6726,85.2525 L6.8966,85.2555 L7.6016,85.9655 L7.5996,87.5215 L10.8136,87.5275 L10.8166,84.7605 L8.8016,82.7345 L2.7586,82.7215 L0.7536,84.7405 L0.7376,94.1355 L2.7956,96.2015 Z M0.3926,94.2775 L0.4106,84.6585 L2.6766,82.3985 L8.9036,82.4105 L11.1616,84.6785 L11.1556,87.8315 L7.2556,87.8225 L7.2596,86.0455 L6.8156,85.6005 L4.7326,85.5975 L4.2876,86.0405 L4.2766,92.9105 L4.7396,93.3755 L6.8026,93.3785 L7.2456,92.9365 L7.2486,91.2405 L11.1496,91.2485 L11.1436,94.2945 L8.8786,96.5545 L2.6516,96.5425 L0.3926,94.2775 Z" id="Fill-1" fill="#FEFEFE" sketch:type="MSShapeGroup"></path>
            <path d="M17.0454,93.3994 L19.1064,93.4024 L19.5494,92.9614 L19.5624,86.0664 L19.1194,85.6254 L17.0394,85.6214 L16.5944,86.0634 L16.5814,92.9334 L17.0454,93.3994 Z M16.2374,93.0344 L16.2494,85.9604 L16.9604,85.2554 L19.2224,85.2584 L19.9294,85.9684 L19.9154,93.0404 L19.2074,93.7474 L16.9434,93.7414 L16.2374,93.0344 Z M16.6814,94.1654 L19.4684,94.1704 L20.3404,93.3044 L20.3544,85.7244 L19.4654,84.8344 L16.6974,84.8294 L15.8254,85.6974 L15.8124,93.2964 L16.6814,94.1654 Z M13.4894,93.9184 L13.5034,85.0644 L15.3674,83.2114 L20.8424,83.2194 L22.6984,85.0834 L22.6844,93.9354 L20.8184,95.7924 L15.3454,95.7794 L13.4894,93.9184 Z M15.0804,96.2044 L21.0814,96.2134 L23.1074,94.1984 L23.1234,84.8404 L21.0664,82.7784 L15.1034,82.7664 L13.0794,84.7814 L13.0634,94.1804 L15.0804,96.2044 Z M12.6994,94.3004 L12.7164,84.6814 L14.9854,82.4214 L21.2064,82.4304 L23.4664,84.7024 L23.4504,94.3184 L21.1814,96.5784 L14.9594,96.5664 L12.6994,94.3004 Z" id="Fill-2" fill="#FEFEFE" sketch:type="MSShapeGroup"></path>
            <path d="M25.3687,95.7979 L25.3707,94.1809 L26.1977,94.1839 L26.2137,84.8469 L25.3897,84.8469 L25.3917,83.2289 L29.4107,83.2349 L29.4077,84.8529 L28.5587,84.8529 L28.5417,94.1859 L32.6217,94.1949 L32.6247,93.3489 L34.2637,93.3529 L34.2577,95.8159 L25.3687,95.7979 Z M34.7017,96.2579 L34.7077,92.9459 L32.2017,92.9439 L32.2007,93.7709 L28.9477,93.7649 L28.9627,85.2969 L29.8317,85.2999 L29.8357,82.7929 L24.9437,82.7869 L24.9397,85.2919 L25.7897,85.2919 L25.7747,93.7379 L24.9437,93.7349 L24.9387,96.2419 L34.7017,96.2579 Z M24.5757,96.5869 L24.5817,93.4139 L25.4327,93.4139 L25.4447,85.6359 L24.5967,85.6329 L24.6007,82.4399 L30.1807,82.4479 L30.1757,85.6459 L29.3257,85.6419 L29.3117,93.4199 L31.8557,93.4269 L31.8587,92.5769 L35.0497,92.5799 L35.0407,96.6049 L24.5757,96.5869 Z" id="Fill-3" fill="#FEFEFE" sketch:type="MSShapeGroup"></path>
            <path d="M37.6748,95.8213 L37.6758,94.2043 L38.5058,94.2063 L38.5238,84.8703 L37.6938,84.8703 L37.6968,83.2533 L46.5268,83.2673 L46.5218,85.4503 L44.8868,85.4473 L44.8868,84.8823 L40.8668,84.8763 L40.8598,88.7353 L42.9798,88.7383 L42.9808,88.1703 L44.5988,88.1753 L44.5928,90.9253 L42.9748,90.9223 L42.9768,90.3553 L40.8568,90.3493 L40.8498,94.2093 L44.8698,94.2183 L44.8728,93.6533 L46.5078,93.6563 L46.5028,95.8393 L37.6748,95.8213 Z M46.9288,96.2803 L46.9348,93.2113 L44.4248,93.2083 L44.4248,93.7733 L41.2748,93.7673 L41.2788,90.7773 L42.5328,90.7773 L42.5318,91.3453 L45.0358,91.3483 L45.0418,87.7513 L42.5388,87.7483 L42.5358,88.3133 L41.2838,88.3113 L41.2898,85.3203 L44.4398,85.3273 L44.4398,85.8923 L46.9468,85.8953 L46.9518,82.8253 L37.2518,82.8073 L37.2478,85.3123 L38.0748,85.3153 L38.0608,93.7613 L37.2328,93.7583 L37.2268,96.2623 L46.9288,96.2803 Z M36.8828,96.6083 L36.8878,93.4343 L37.7368,93.4373 L37.7518,85.6593 L36.9028,85.6563 L36.9088,82.4603 L47.2978,82.4803 L47.2898,86.2393 L44.1168,86.2343 L44.1178,85.6723 L41.6318,85.6663 L41.6268,87.9463 L42.1948,87.9493 L42.1958,87.4043 L45.3868,87.4103 L45.3798,91.6933 L42.1888,91.6883 L42.1888,91.1393 L41.6208,91.1393 L41.6168,93.4433 L44.1038,93.4503 L44.1038,92.8603 L47.2768,92.8663 L47.2708,96.6263 L36.8828,96.6083 Z" id="Fill-4" fill="#FEFEFE" sketch:type="MSShapeGroup"></path>
            <path d="M49.1948,93.9824 L49.2098,85.1114 L51.0538,83.2764 L56.5078,83.2884 L58.3648,85.1494 L58.3618,87.1504 L56.0178,87.1444 L56.0198,85.7714 L55.1518,84.9024 L52.4038,84.8964 L51.5338,85.7624 L51.5188,93.3614 L52.3868,94.2304 L55.1338,94.2364 L56.0068,93.3704 L56.0088,90.9044 L54.9778,90.9014 L54.9818,89.5454 L58.3578,89.5544 L58.3478,94.0004 L56.4848,95.8564 L51.0508,95.8444 L49.1948,93.9824 Z M50.7858,96.2904 L56.7468,96.2984 L58.7718,94.2834 L58.7818,89.1304 L54.5158,89.1214 L54.5108,91.3284 L55.5848,91.3324 L55.5818,93.0864 L54.8718,93.7914 L52.6718,93.7884 L51.9668,93.0814 L51.9788,86.0484 L52.6858,85.3404 L54.8868,85.3444 L55.5948,86.0534 L55.5908,87.5894 L58.7858,87.5954 L58.7898,84.8874 L56.7538,82.8424 L50.7898,82.8314 L48.7658,84.8464 L48.7478,94.2454 L50.7858,96.2904 Z M48.4048,94.3664 L48.4228,84.7474 L50.6918,82.4864 L56.8728,82.4984 L59.1528,84.7884 L59.1488,87.9194 L55.2488,87.9144 L55.2488,86.1334 L54.8058,85.6894 L52.7448,85.6864 L52.3008,86.1284 L52.2878,92.9994 L52.7508,93.4644 L54.7928,93.4674 L55.2368,93.0254 L55.2398,91.6694 L54.1678,91.6684 L54.1738,88.7794 L59.1448,88.7894 L59.1348,94.3454 L56.8458,96.6424 L50.6648,96.6314 L48.4048,94.3664 Z" id="Fill-5" fill="#FEFEFE" sketch:type="MSShapeGroup"></path>
            <path d="M61.0552,95.8652 L61.0562,94.2472 L61.8822,94.2472 L61.9002,84.9152 L61.0732,84.9112 L61.0772,83.2942 L65.0972,83.3022 L65.0942,84.9202 L64.2432,84.9182 L64.2282,94.2512 L65.0762,94.2542 L65.0742,95.8712 L61.0552,95.8652 Z M65.4972,96.3162 L65.5002,93.8322 L64.6342,93.8292 L64.6492,85.3652 L65.5172,85.3652 L65.5222,82.8612 L60.6312,82.8482 L60.6272,85.3562 L61.4752,85.3582 L61.4612,93.8242 L60.6122,93.8242 L60.6072,96.3072 L65.4972,96.3162 Z M60.2602,96.6492 L60.2662,93.4752 L61.1172,93.4782 L61.1312,85.7012 L60.2822,85.6972 L60.2872,82.5052 L65.8662,82.5152 L65.8602,85.7102 L65.0112,85.7072 L64.9972,93.4882 L65.8452,93.4882 L65.8392,96.6602 L60.2602,96.6492 Z" id="Fill-6" fill="#FEFEFE" sketch:type="MSShapeGroup"></path>
            <path d="M74.2573,90.1289 L73.7943,88.7749 L73.3283,90.1259 L74.2573,90.1289 Z M72.9233,90.4919 L73.7973,87.6849 L74.6423,90.4939 L72.9233,90.4919 Z M75.3073,90.8979 L73.8003,86.2899 L72.2363,90.8929 L75.3073,90.8979 Z M68.0443,95.8779 L68.0463,94.2599 L68.6503,94.2599 L71.7613,84.9329 L70.8713,84.9289 L70.8743,83.3119 L76.8363,83.3239 L76.8343,84.9409 L75.8433,84.9389 L78.9183,94.2799 L79.5253,94.2799 L79.5203,95.8989 L75.6623,95.8919 L75.6653,94.2749 L76.4323,94.2749 L75.7083,92.0729 L71.8523,92.0669 L71.1163,94.2659 L71.8853,94.2659 L71.8853,95.8829 L68.0443,95.8779 Z M72.3273,96.3279 L72.3303,93.8239 L71.8063,93.8239 L72.1323,92.5099 L75.4443,92.5159 L75.7443,93.8289 L75.2223,93.8289 L75.2173,96.3339 L79.9653,96.3429 L79.9693,93.8389 L79.1593,93.8389 L76.4663,85.3859 L77.2583,85.3889 L77.2633,82.8819 L70.4323,82.8689 L70.4273,85.3739 L71.1143,85.3769 L68.3903,93.8169 L67.6013,93.8149 L67.5983,96.3189 L72.3273,96.3279 Z M67.2533,96.6639 L67.2603,93.4909 L68.1083,93.4929 L70.7073,85.7189 L70.0833,85.7149 L70.0893,82.5229 L77.6073,82.5359 L77.6003,85.7309 L76.8923,85.7309 L79.4633,93.5119 L80.2933,93.5139 L80.2873,96.6879 L74.8733,96.6789 L74.8793,93.5059 L75.3613,93.5059 L75.1413,92.8399 L72.4333,92.8339 L72.1913,93.4989 L72.6743,93.4989 L72.6693,96.6729 L67.2533,96.6639 Z" id="Fill-7" fill="#FEFEFE" sketch:type="MSShapeGroup"></path>
            <path d="M82.0864,95.9014 L82.0894,94.2864 L82.9194,94.2864 L82.9374,84.9534 L82.1074,84.9494 L82.1094,83.3324 L86.1304,83.3404 L86.1294,84.9594 L85.2784,84.9564 L85.2644,94.2924 L89.3444,94.2974 L89.3444,93.4524 L90.9824,93.4554 L90.9764,95.9194 L82.0864,95.9014 Z M91.4244,96.3644 L91.4314,93.0514 L88.9194,93.0464 L88.9194,93.8734 L85.6684,93.8684 L85.6844,85.4034 L86.5514,85.4034 L86.5544,82.8994 L81.6674,82.8894 L81.6644,85.3944 L82.5094,85.3974 L82.4944,93.8444 L81.6674,93.8414 L81.6644,96.3454 L91.4244,96.3644 Z M81.2984,96.6904 L81.3044,93.5164 L82.1504,93.5164 L82.1644,85.7394 L81.3184,85.7394 L81.3244,82.5464 L86.8984,82.5534 L86.8934,85.7484 L86.0474,85.7454 L86.0324,93.5264 L88.5754,93.5294 L88.5784,92.6804 L91.7724,92.6864 L91.7674,96.7084 L81.2984,96.6904 Z" id="Fill-8" fill="#FEFEFE" sketch:type="MSShapeGroup"></path>
            <path d="M94.394,95.9238 L94.397,94.3078 L95.226,94.3098 L95.242,84.9738 L94.415,84.9738 L94.417,83.3558 L103.248,83.3728 L103.245,85.5538 L101.607,85.5508 L101.607,84.9848 L97.585,84.9798 L97.579,88.8378 L99.699,88.8408 L99.701,88.2758 L101.317,88.2778 L101.312,91.0278 L99.695,91.0248 L99.695,90.4618 L97.574,90.4558 L97.568,94.3128 L101.589,94.3208 L101.589,93.7558 L103.227,93.7588 L103.224,95.9428 L94.394,95.9238 Z M103.647,96.3848 L103.652,93.3148 L101.149,93.3108 L101.147,93.8768 L97.992,93.8698 L97.998,90.8798 L99.253,90.8798 L99.25,91.4488 L101.757,91.4548 L101.763,87.8548 L99.255,87.8518 L99.255,88.4178 L98.003,88.4178 L98.006,85.4238 L101.163,85.4298 L101.161,85.9948 L103.665,86.0018 L103.67,82.9278 L93.973,82.9098 L93.969,85.4178 L94.798,85.4178 L94.781,93.8648 L93.952,93.8618 L93.95,96.3658 L103.647,96.3848 Z M93.602,96.7138 L93.608,93.5408 L94.457,93.5408 L94.474,85.7628 L93.623,85.7598 L93.628,82.5668 L104.015,82.5868 L104.008,86.3428 L100.838,86.3378 L100.838,85.7758 L98.352,85.7688 L98.348,88.0548 L98.915,88.0548 L98.915,87.5068 L102.107,87.5128 L102.099,91.7958 L98.908,91.7908 L98.908,91.2458 L98.342,91.2428 L98.339,93.5498 L100.824,93.5528 L100.827,92.9668 L103.996,92.9718 L103.988,96.7318 L93.602,96.7138 Z" id="Fill-9" fill="#FEFEFE" sketch:type="MSShapeGroup"></path>
            <path d="M105.9146,94.0889 L105.9176,92.5329 L108.2386,92.5359 L108.2386,93.4679 L109.1076,94.3359 L111.8956,94.3389 L112.7646,93.4519 L112.7686,91.4349 L111.8816,90.5209 L107.8006,90.5149 L105.9226,88.6289 L105.9296,85.2349 L107.7926,83.3799 L113.2526,83.3909 L115.1236,85.2949 L115.1216,86.8909 L112.7766,86.8859 L112.7786,85.9159 L111.8926,85.0049 L109.1266,84.9999 L108.2506,85.8649 L108.2486,88.0079 L109.1186,88.8799 L113.2416,88.8889 L115.1126,90.7919 L115.1056,94.1039 L113.2686,95.9599 L107.7496,95.9499 L105.9146,94.0889 Z M107.4896,96.3929 L113.5106,96.4049 L115.5316,94.4099 L115.5366,90.4469 L113.5456,88.4639 L109.3796,88.4559 L108.6916,87.7479 L108.6966,86.1519 L109.3846,85.4439 L111.6266,85.4499 L112.3366,86.1569 L112.3346,87.3099 L115.5436,87.3159 L115.5486,84.9529 L113.5536,82.9459 L107.4936,82.9349 L105.4866,84.9329 L105.4796,88.9529 L107.4766,90.9569 L111.6186,90.9659 L112.3256,91.6519 L112.3216,93.1909 L111.5946,93.8979 L109.3886,93.8909 L108.6846,93.1849 L108.6856,92.1109 L105.4746,92.1069 L105.4696,94.3899 L107.4896,96.3929 Z M105.1256,94.4689 L105.1306,91.7619 L109.0106,91.7679 L109.0076,93.1019 L109.4926,93.5699 L111.5146,93.5729 L111.9796,93.1319 L111.9806,91.7349 L111.5386,91.3079 L107.3936,91.3019 L105.1366,89.0329 L105.1436,84.8529 L107.4106,82.5919 L113.6376,82.6049 L115.8956,84.8699 L115.8906,87.6599 L111.9896,87.6539 L111.9906,86.2369 L111.5506,85.7919 L109.4466,85.7889 L109.0196,86.2319 L109.0196,87.6659 L109.4636,88.1139 L113.6266,88.1229 L115.8876,90.3889 L115.8776,94.4889 L113.6096,96.7489 L107.3846,96.7379 L105.1256,94.4689 Z" id="Fill-10" fill="#FEFEFE" sketch:type="MSShapeGroup"></path>
            <path d="M10.4014,106.9404 L9.9384,105.5854 L9.4734,106.9374 L10.4014,106.9404 Z M9.0694,107.2994 L9.9424,104.4954 L10.7874,107.3054 L9.0694,107.2994 Z M11.4534,107.7094 L9.9444,103.1014 L8.3814,107.7044 L11.4534,107.7094 Z M4.1874,112.6884 L4.1894,111.0714 L4.7974,111.0714 L7.9054,101.7434 L7.0194,101.7404 L7.0224,100.1264 L12.9824,100.1374 L12.9794,101.7524 L11.9864,101.7524 L15.0624,111.0884 L15.6694,111.0914 L15.6664,112.7094 L11.8064,112.7004 L11.8094,111.0824 L12.5754,111.0854 L11.8544,108.8844 L7.9944,108.8764 L7.2634,111.0774 L8.0324,111.0774 L8.0294,112.6944 L4.1874,112.6884 Z M8.4714,113.1384 L8.4764,110.6344 L7.9504,110.6344 L8.2774,109.3204 L11.5884,109.3274 L11.8904,110.6414 L11.3644,110.6414 L11.3604,113.1454 L16.1084,113.1544 L16.1134,110.6494 L15.3044,110.6464 L12.6124,102.1964 L13.4034,102.2004 L13.4074,99.6924 L6.5754,99.6774 L6.5714,102.1854 L7.2594,102.1884 L4.5354,110.6284 L3.7474,110.6264 L3.7424,113.1334 L8.4714,113.1384 Z M3.3984,113.4744 L3.4044,110.3024 L4.2524,110.3054 L6.8544,102.5294 L6.2264,102.5274 L6.2324,99.3364 L13.7504,99.3504 L13.7434,102.5424 L13.0384,102.5424 L15.6094,110.3234 L16.4394,110.3264 L16.4344,113.4984 L11.0174,113.4904 L11.0234,110.3164 L11.5074,110.3164 L11.2864,109.6514 L8.5794,109.6444 L8.3374,110.3104 L8.8194,110.3134 L8.8134,113.4844 L3.3984,113.4744 Z" id="Fill-11" fill="#FEFEFE" sketch:type="MSShapeGroup"></path>
            <path d="M17.9497,112.7119 L17.9507,111.0949 L18.7807,111.0979 L18.7977,101.7639 L17.9687,101.7609 L17.9727,100.1469 L21.2257,100.1519 L26.4407,108.8499 L26.4557,101.7749 L25.5887,101.7749 L25.5907,100.1609 L29.6337,100.1669 L29.6297,101.7809 L28.7597,101.7809 L28.7417,111.1149 L29.6107,111.1179 L29.6107,112.7359 L26.2347,112.7299 L21.1377,104.1909 L21.1237,111.1009 L21.9727,111.1029 L21.9697,112.7209 L17.9497,112.7119 Z M22.3927,113.1869 L22.3967,110.6619 L21.5507,110.6589 L21.5587,105.9709 L25.8687,113.1919 L30.0327,113.2009 L30.0367,110.6769 L29.1877,110.6729 L29.2027,102.2269 L30.0537,102.2299 L30.0567,99.7219 L25.1667,99.7139 L25.1617,102.2209 L26.0107,102.2209 L26.0017,107.0529 L21.6117,99.7069 L17.5287,99.6979 L17.5257,102.2059 L18.3507,102.2059 L18.3357,110.6519 L17.5097,110.6519 L17.5047,113.1779 L22.3927,113.1869 Z M17.1597,113.5019 L17.1657,110.3279 L18.0127,110.3279 L18.0267,102.5499 L17.1807,102.5479 L17.1867,99.3579 L21.7727,99.3619 L25.6597,105.8589 L25.6657,102.5629 L24.8177,102.5629 L24.8237,99.3679 L30.4007,99.3809 L30.3947,102.5699 L29.5457,102.5699 L29.5317,110.3519 L30.3797,110.3519 L30.3737,113.5249 L25.7067,113.5159 L21.9007,107.1849 L21.8947,110.3339 L22.7417,110.3369 L22.7357,113.5109 L17.1597,113.5019 Z" id="Fill-12" fill="#FEFEFE" sketch:type="MSShapeGroup"></path>
            <path d="M37.7573,110.3643 L38.2203,109.9043 L38.2343,103.0313 L37.7903,102.5863 L35.8303,102.5833 L35.8163,110.3613 L37.7573,110.3643 Z M35.4723,110.6843 L35.4873,102.2383 L37.9133,102.2443 L38.5763,102.9093 L38.5653,109.9643 L37.8373,110.6873 L35.4723,110.6843 Z M38.1193,111.1333 L38.9883,110.2663 L39.0033,102.6693 L38.1373,101.7993 L35.0643,101.7943 L35.0463,111.1273 L38.1193,111.1333 Z M31.8733,112.7383 L31.8733,111.1213 L32.7033,111.1243 L32.7203,101.7873 L31.8913,101.7873 L31.8943,100.1733 L39.4723,100.1843 L41.3283,102.0443 L41.3103,110.9003 L39.4483,112.7543 L31.8733,112.7383 Z M39.6913,113.1983 L41.7573,111.1383 L41.7743,101.8043 L39.7163,99.7403 L31.4493,99.7243 L31.4463,102.2323 L32.2743,102.2323 L32.2593,110.6793 L31.4303,110.6763 L31.4253,113.1833 L39.6913,113.1983 Z M31.0813,113.5253 L31.0873,110.3513 L31.9383,110.3543 L31.9533,102.5743 L31.1023,102.5743 L31.1073,99.3813 L39.8583,99.3983 L42.1173,101.6643 L42.0993,111.2863 L39.8313,113.5433 L31.0813,113.5253 Z" id="Fill-13" fill="#FEFEFE" sketch:type="MSShapeGroup"></path>
            <path d="M50.2305,107.0146 L49.7675,105.6616 L49.3005,107.0146 L50.2305,107.0146 Z M48.8975,107.3756 L49.7695,104.5686 L50.6135,107.3756 L48.8975,107.3756 Z M51.2795,107.7836 L49.7735,103.1756 L48.2075,107.7776 L51.2795,107.7836 Z M44.0185,112.7586 L44.0215,111.1416 L44.6255,111.1446 L47.7345,101.8166 L46.8465,101.8146 L46.8495,100.2006 L52.8115,100.2106 L52.8085,101.8266 L51.8175,101.8226 L54.8915,111.1656 L55.4995,111.1656 L55.4965,112.7826 L51.6345,112.7746 L51.6375,111.1566 L52.4045,111.1596 L51.6825,108.9586 L47.8215,108.9496 L47.0905,111.1506 L47.8585,111.1506 L47.8555,112.7676 L44.0185,112.7586 Z M48.3005,113.2126 L48.3045,110.7076 L47.7805,110.7046 L48.1045,109.3946 L51.4185,109.4006 L51.7195,110.7146 L51.1955,110.7146 L51.1885,113.2196 L55.9385,113.2276 L55.9415,110.7206 L55.1345,110.7206 L52.4415,102.2706 L53.2305,102.2706 L53.2335,99.7626 L46.4045,99.7546 L46.3985,102.2586 L47.0885,102.2616 L44.3625,110.7006 L43.5745,110.7006 L43.5705,113.2036 L48.3005,113.2126 Z M43.2255,113.5486 L43.2305,110.3756 L44.0825,110.3786 L46.6815,102.6036 L46.0535,102.6006 L46.0605,99.4066 L53.5805,99.4216 L53.5725,102.6156 L52.8655,102.6156 L55.4375,110.3996 L56.2675,110.3996 L56.2605,113.5726 L50.8445,113.5636 L50.8505,110.3896 L51.3335,110.3896 L51.1155,109.7246 L48.4095,109.7186 L48.1635,110.3846 L48.6465,110.3846 L48.6405,113.5576 L43.2255,113.5486 Z" id="Fill-14" fill="#FEFEFE" sketch:type="MSShapeGroup"></path>
            <path d="M58.0591,112.7852 L58.0611,111.1712 L58.8921,111.1712 L58.9111,101.8372 L58.0791,101.8352 L58.0821,100.2212 L62.1021,100.2252 L62.1011,101.8432 L61.2551,101.8402 L61.2381,111.1742 L65.3181,111.1832 L65.3211,110.3342 L66.9571,110.3412 L66.9531,112.8032 L58.0591,112.7852 Z M67.3951,113.2482 L67.4011,109.9362 L64.8951,109.9332 L64.8931,110.7592 L61.6411,110.7532 L61.6561,102.2852 L62.5251,102.2882 L62.5291,99.7812 L57.6401,99.7722 L57.6351,102.2792 L58.4831,102.2792 L58.4671,110.7252 L57.6401,110.7252 L57.6351,113.2302 L67.3951,113.2482 Z M57.2721,113.5762 L57.2781,110.4022 L58.1261,110.4022 L58.1411,102.6242 L57.2911,102.6212 L57.2981,99.4272 L62.8741,99.4392 L62.8681,102.6332 L62.0181,102.6312 L62.0041,110.4112 L64.5501,110.4142 L64.5521,109.5652 L67.7461,109.5722 L67.7371,113.5942 L57.2721,113.5762 Z" id="Fill-15" fill="#FEFEFE" sketch:type="MSShapeGroup"></path>
            <path d="M68.8306,101.8555 L68.8336,100.2385 L72.8546,100.2465 L72.8516,101.8605 L72.0026,101.8605 L71.9896,110.3285 L72.8546,111.1975 L75.6246,111.2015 L76.5136,110.3165 L76.5286,101.8705 L75.6806,101.8675 L75.6836,100.2515 L79.7046,100.2585 L79.7016,101.8765 L78.8526,101.8735 L78.8346,110.9675 L76.9746,112.8215 L71.5176,112.8125 L69.6426,110.9295 L69.6606,101.8555 L68.8306,101.8555 Z M69.2126,102.2995 L69.1946,111.2505 L71.1926,113.2575 L77.2976,113.2655 L79.2816,111.2925 L79.2976,102.3205 L80.1256,102.3205 L80.1326,99.8165 L75.2376,99.8035 L75.2346,102.3125 L76.1056,102.3125 L76.0906,110.0545 L75.3626,110.7585 L73.1376,110.7525 L72.4126,110.0255 L72.4276,102.3055 L73.2756,102.3085 L73.2786,99.8015 L68.3906,99.7925 L68.3856,102.2995 L69.2126,102.2995 Z M68.0396,102.6415 L68.0466,99.4475 L73.6246,99.4595 L73.6186,102.6515 L72.7686,102.6515 L72.7546,109.9875 L73.1986,110.4315 L75.2786,110.4345 L75.7266,109.9925 L75.7416,102.6545 L74.8916,102.6545 L74.8956,99.4625 L80.4936,99.4715 L80.4886,102.6655 L79.6186,102.6625 L79.6026,111.3545 L77.3576,113.6105 L71.1316,113.5985 L68.8746,111.3345 L68.8896,102.6445 L68.0396,102.6415 Z" id="Fill-16" fill="#FEFEFE" sketch:type="MSShapeGroup"></path>
            <path d="M82.5347,110.9746 L82.5507,102.1206 L84.4157,100.2666 L89.8887,100.2766 L91.7477,102.1376 L91.7427,104.1416 L89.3997,104.1356 L89.4007,102.7806 L88.5127,101.8906 L85.7477,101.8846 L84.8737,102.7536 L84.8597,110.3516 L85.7297,111.2186 L88.4967,111.2246 L89.3877,110.3406 L89.3887,109.0646 L91.7717,109.0706 L91.7697,110.9916 L89.9067,112.8446 L84.3907,112.8326 L82.5347,110.9746 Z M84.1467,113.2816 L90.1487,113.2886 L92.1547,111.2946 L92.1587,108.6496 L88.9437,108.6436 L88.9407,110.0756 L88.2337,110.7826 L86.0127,110.7766 L85.3057,110.0696 L85.3167,103.0366 L86.0267,102.3326 L88.2487,102.3356 L88.9547,103.0426 L88.9497,104.6016 L92.1677,104.6066 L92.1727,101.8366 L90.1517,99.8136 L84.1117,99.8016 L82.1077,101.8196 L82.0907,111.2116 L84.1467,113.2816 Z M81.7487,111.3566 L81.7657,101.7376 L84.0317,99.4776 L90.2557,99.4896 L92.5137,101.7576 L92.5087,104.9106 L88.6077,104.9016 L88.6087,103.1216 L88.1687,102.6766 L86.0867,102.6746 L85.6387,103.1166 L85.6277,109.9906 L86.0937,110.4546 L88.1547,110.4576 L88.5977,110.0156 L88.5987,108.3196 L92.5017,108.3256 L92.4977,111.3766 L90.2267,113.6346 L84.0067,113.6216 L81.7487,111.3566 Z" id="Fill-17" fill="#FEFEFE" sketch:type="MSShapeGroup"></path>
            <path d="M94.9595,111.2363 L94.1305,111.2363 L94.1295,112.8533 L98.1485,112.8593 L98.1535,111.2423 L97.3055,111.2423 L97.3195,101.9053 L98.1685,101.9083 L98.1735,100.2943 L94.1525,100.2843 L94.1475,101.8983 L94.9775,101.9023 L94.9595,111.2363 Z" id="Fill-18" fill="#FEFEFE" sketch:type="MSShapeGroup"></path>
            <path d="M93.7075,99.8398 L98.5995,99.8488 L98.5965,102.3568 L97.7245,102.3538 L97.7085,110.8178 L98.5785,110.8198 L98.5755,113.3068 L93.6845,113.2988 L93.6865,110.8118 L94.5365,110.8148 L94.5505,102.3468 L93.7035,102.3468 L93.7075,99.8398 Z M93.3585,102.6898 L94.2085,102.6898 L94.1935,110.4708 L93.3455,110.4668 L93.3405,113.6398 L98.9175,113.6528 L98.9225,110.4788 L98.0745,110.4758 L98.0895,102.6968 L98.9395,102.6968 L98.9445,99.5078 L93.3645,99.4948 L93.3585,102.6898 Z" id="Fill-19" fill="#FEFEFE" sketch:type="MSShapeGroup"></path>
            <path d="M106.769,107.1172 L106.306,105.7642 L105.84,107.1172 L106.769,107.1172 Z M105.437,107.4792 L106.307,104.6722 L107.154,107.4822 L105.437,107.4792 Z M107.818,107.8862 L106.309,103.2782 L104.748,107.8802 L107.818,107.8862 Z M100.558,112.8652 L100.561,111.2482 L101.163,111.2482 L104.273,101.9202 L103.384,101.9172 L103.387,100.3032 L109.348,100.3142 L109.343,101.9292 L108.354,101.9292 L111.431,111.2682 L112.037,111.2682 L112.034,112.8862 L108.174,112.8802 L108.177,111.2632 L108.944,111.2632 L108.22,109.0612 L104.362,109.0532 L103.628,111.2532 L104.397,111.2532 L104.395,112.8712 L100.558,112.8652 Z M104.835,113.3192 L104.842,110.8112 L104.321,110.8112 L104.644,109.4982 L107.956,109.5042 L108.259,110.8172 L107.732,110.8172 L107.729,113.3242 L112.479,113.3302 L112.482,110.8272 L111.674,110.8242 L108.98,102.3742 L109.771,102.3742 L109.774,99.8692 L102.942,99.8572 L102.939,102.3612 L103.628,102.3642 L100.903,110.8062 L100.114,110.8032 L100.111,113.3092 L104.835,113.3192 Z M99.765,113.6522 L99.772,110.4782 L100.618,110.4812 L103.218,102.7072 L102.593,102.7032 L102.6,99.5102 L110.119,99.5252 L110.113,102.7182 L109.405,102.7182 L111.978,110.5022 L112.805,110.5022 L112.799,113.6762 L107.381,113.6662 L107.388,110.4942 L107.876,110.4942 L107.653,109.8272 L104.945,109.8222 L104.704,110.4882 L105.185,110.4912 L105.179,113.6632 L99.765,113.6522 Z" id="Fill-20" fill="#FEFEFE" sketch:type="MSShapeGroup"></path>
            <g id="Group-36" transform="translate(18.000000, 0.000000)" sketch:type="MSShapeGroup">
                <path d="M70.0386,58.3691 C70.0386,64.9821 64.6786,70.3461 58.0656,70.3461 L19.4006,70.3461 C12.7866,70.3461 7.4256,64.9821 7.4256,58.3691 L7.4256,19.7021 C7.4256,13.0901 12.7866,7.7281 19.4006,7.7281 L58.0656,7.7281 C64.6786,7.7281 70.0386,13.0901 70.0386,19.7021 L70.0386,58.3691 Z" id="Fill-21" fill="#FEFEFE"></path>
                <path d="M16.3838,3.8682 C9.5708,3.8682 3.9828,9.4112 3.9288,16.2252 L3.5678,61.2822 C3.5398,64.6112 4.8108,67.7492 7.1448,70.1212 C9.4778,72.4932 12.5948,73.8122 15.9228,73.8402 L61.0838,74.2042 C67.8978,74.2042 73.4828,68.6602 73.5398,61.8452 L73.9018,16.7882 C73.9558,9.9192 68.4128,4.2852 61.5458,4.2312 L16.3838,3.8682 Z M61.0838,77.1982 L60.9568,77.1952 L15.8978,76.8332 C11.7718,76.8012 7.9048,75.1622 5.0108,72.2222 C2.1148,69.2782 0.5388,65.3872 0.5728,61.2592 L0.9348,16.2002 C1.0028,7.7492 7.9328,0.8752 16.3838,0.8752 L16.5098,0.8752 L61.5688,1.2382 C70.0868,1.3052 76.9628,8.2922 76.8948,16.8112 L76.5328,61.8722 C76.4638,70.3222 69.5328,77.1982 61.0838,77.1982 L61.0838,77.1982 Z" id="Fill-23" fill="#FEFEFE"></path>
                <path d="M17.0054,38.9463 L17.0944,18.6723 L21.3724,14.4333 L33.9154,14.4923 L38.1534,18.7683 L38.1334,23.3503 L32.7654,23.3253 L32.7794,20.2263 L30.7534,18.1783 L24.4094,18.1493 L22.4114,20.1333 L22.3324,37.5363 L24.3124,39.5333 L30.6554,39.5623 L32.7004,37.5363 L32.7124,34.6193 L38.1744,34.6433 L38.1534,39.0413 L33.8764,43.2813 L21.2424,43.2243 L17.0054,38.9463 Z M20.6794,44.2383 L34.4284,44.3003 L39.0314,39.7393 L39.0594,33.6773 L31.6984,33.6433 L31.6824,36.9313 L30.0574,38.5433 L24.9664,38.5203 L23.3544,36.8933 L23.4254,20.7833 L25.0544,19.1733 L30.1444,19.1953 L31.7554,20.8223 L31.7384,24.3863 L39.0994,24.4223 L39.1294,18.0803 L34.5214,13.4283 L20.6824,13.3673 L16.0794,17.9753 L15.9834,39.4953 L20.6794,44.2383 Z M15.1924,39.8163 L15.2934,17.7843 L20.5014,12.6253 L34.7554,12.6913 L39.9184,17.8953 L39.8834,25.1173 L30.9504,25.0763 L30.9674,21.0033 L29.9574,19.9823 L25.1874,19.9603 L24.1644,20.9723 L24.0944,36.7083 L25.1544,37.7803 L29.8744,37.8003 L30.8984,36.7873 L30.9144,32.9003 L39.8494,32.9393 L39.8174,39.9273 L34.6064,45.0903 L20.3554,45.0243 L15.1924,39.8163 Z" id="Fill-25" fill="#1771A4"></path>
                <path d="M48.4731,50.3877 L47.4191,47.2827 L46.3431,50.3777 L48.4731,50.3877 Z M45.4111,51.2057 L47.4311,44.7837 L49.3451,51.2247 L45.4111,51.2057 Z M50.8691,52.1587 L47.4481,41.5897 L43.8351,52.1257 L50.8691,52.1587 Z M34.2031,63.5157 L34.2201,59.8097 L35.6081,59.8157 L42.7841,38.4667 L40.7501,38.4577 L40.7661,34.7537 L54.4191,34.8167 L54.4041,38.5207 L52.1341,38.5077 L59.1191,59.9247 L60.5081,59.9297 L60.4911,63.6337 L51.6521,63.5957 L51.6681,59.8917 L53.4281,59.8977 L51.7831,54.8447 L42.9431,54.8067 L41.2521,59.8417 L43.0111,59.8507 L42.9951,63.5567 L34.2031,63.5157 Z M44.0111,64.5757 L44.0361,58.8367 L42.8331,58.8337 L43.5841,55.8257 L51.1741,55.8617 L51.8601,58.8727 L50.6531,58.8687 L50.6291,64.6057 L61.5041,64.6567 L61.5311,58.9197 L59.6781,58.9107 L53.5671,39.5337 L55.3691,39.5417 L55.3971,33.8027 L39.7521,33.7327 L39.7271,39.4707 L41.3001,39.4777 L35.0091,58.7947 L33.2071,58.7897 L33.1791,64.5297 L44.0111,64.5757 Z M32.3901,65.3107 L32.4231,58.0437 L34.3651,58.0537 L40.3701,40.2617 L38.9391,40.2547 L38.9681,32.9427 L56.1831,33.0197 L56.1541,40.3307 L54.5301,40.3247 L60.3751,58.1707 L62.2761,58.1807 L62.2411,65.4457 L49.8381,65.3897 L49.8691,58.1237 L50.9831,58.1297 L50.4791,56.6007 L44.2801,56.5727 L43.7171,58.0977 L44.8241,58.1007 L44.7931,65.3667 L32.3901,65.3107 Z" id="Fill-27" fill="#1771A4"></path>
                <path d="M100.0679,79.7764 C98.9009,79.7874 97.9619,80.7484 97.9729,81.9154 C97.9849,83.0784 98.9449,84.0214 100.1099,84.0064 C101.2779,83.9944 102.2169,83.0374 102.2069,81.8714 C102.1949,80.7034 101.2349,79.7634 100.0679,79.7764 M100.1149,84.3284 C98.7709,84.3394 97.6699,83.2584 97.6549,81.9184 C97.6409,80.5754 98.7209,79.4694 100.0639,79.4584 C101.4069,79.4434 102.5119,80.5244 102.5249,81.8684 C102.5399,83.2124 101.4589,84.3124 100.1149,84.3284" id="Fill-29" fill="#FEFEFE"></path>
                <path d="M99.5347,81.7588 L99.8827,81.7588 C100.2827,81.7618 100.5317,81.5468 100.5317,81.2288 C100.5317,80.8708 100.2827,80.7068 99.8977,80.7068 C99.7107,80.7068 99.5927,80.7218 99.5347,80.7368 L99.5347,81.7588 Z M98.9487,80.3258 C99.1687,80.2878 99.5007,80.2628 99.8407,80.2628 C100.3057,80.2628 100.6237,80.3388 100.8397,80.5248 C101.0157,80.6718 101.1177,80.8988 101.1167,81.1688 C101.1167,81.5878 100.8337,81.8708 100.5297,81.9808 L100.5297,81.9938 C100.7617,82.0828 100.8987,82.3068 100.9807,82.6188 C101.0817,83.0228 101.1667,83.3968 101.2327,83.5238 L100.6247,83.5208 C100.5777,83.4268 100.5007,83.1608 100.4097,82.7578 C100.3177,82.3368 100.1657,82.1998 99.8297,82.1918 L99.5317,82.1918 L99.5297,83.5208 L98.9447,83.5208 L98.9487,80.3258 Z" id="Fill-31" fill="#FEFEFE"></path>
            </g>
        </g>
    </g>
</svg>