<?xml version="1.0" encoding="UTF-8" standalone="no"?>
<svg width="134px" height="40px" viewBox="0 0 134 40" version="1.1" xmlns="http://www.w3.org/2000/svg" xmlns:xlink="http://www.w3.org/1999/xlink" xmlns:sketch="http://www.bohemiancoding.com/sketch/ns">
    <!-- Generator: Sketch 3.2.2 (9983) - http://www.bohemiancoding.com/sketch -->
    <title>logo-vectorial-PANTONE 114-7C (1)</title>
    <desc>Created with Sketch.</desc>
    <defs></defs>
    <g id="Page-1" stroke="none" stroke-width="1" fill="none" fill-rule="evenodd" sketch:type="MSPage">
        <g id="logo-vectorial-PANTONE-114-7C-(1)" sketch:type="MSLayerGroup">
            <g id="Group" transform="translate(44.838462, 5.641026)" fill="#FEFEFE" sketch:type="MSShapeGroup">
                <path d="M0.871425086,10.9117216 L0.883215041,4.42673993 L2.25527111,3.06776557 L6.29112025,3.07509158 L7.65801822,4.43846154 L7.65507073,5.90586081 L5.92784225,5.903663 L5.93005287,4.91172161 L5.27644721,4.25750916 L3.23678491,4.25531136 L2.59496921,4.88901099 L2.58465299,10.4589744 L3.22499495,11.0934066 L5.26392038,11.0970696 L5.91899978,10.4479853 L5.9212104,9.51538462 L7.67791377,9.51758242 L7.67496628,10.9249084 L6.30364708,12.2846154 L2.23905992,12.2750916 L0.871425086,10.9117216 Z M2.05999997,12.6018315 L6.48123329,12.6106227 L7.95718834,11.1468864 L7.96234645,9.20842491 L5.59403914,9.2040293 L5.59256539,10.2553114 L5.07085986,10.7710623 L3.4305823,10.7695971 L2.91256113,10.2509158 L2.92066673,5.0970696 L3.44310913,4.58058608 L5.08191294,4.58278388 L5.60140786,5.1029304 L5.59993411,6.24285714 L7.96824142,6.24725275 L7.97045204,4.22014652 L6.48565452,2.73589744 L2.0327357,2.72637363 L0.555306904,4.20549451 L0.543516949,11.0882784 L2.05999997,12.6018315 Z M0.289296033,11.1923077 L0.302559733,4.14542125 L1.97231218,2.48974359 L6.56081549,2.4985348 L8.22467296,4.16007326 L8.22025172,6.46996337 L5.34645007,6.46336996 L5.34939756,5.16153846 L5.02222629,4.83553114 L3.48732146,4.83333333 L3.15941332,5.15787546 L3.15130773,10.1908425 L3.49247957,10.5315018 L5.01264695,10.5336996 L5.33908135,10.2098901 L5.34129196,8.96739927 L8.21583049,8.97326007 L8.21140926,11.2047619 L6.54239368,12.8604396 L1.95389038,12.8516484 L0.289296033,11.1923077 Z" id="Fill-1"></path>
                <path d="M12.5602817,10.549011 L14.0789754,10.5512088 L14.4054098,10.2281319 L14.4149891,5.17684982 L14.0885547,4.85377289 L12.5558605,4.85084249 L12.2279523,5.17465201 L12.218373,10.207619 L12.5602817,10.549011 Z M11.964889,10.2816117 L11.9737314,5.09919414 L12.4976476,4.58271062 L14.1644525,4.58490842 L14.6854212,5.10505495 L14.675105,10.2860073 L14.1533995,10.803956 L12.4851208,10.7995604 L11.964889,10.2816117 Z M12.2920602,11.1101832 L14.3457231,11.1138462 L14.9882757,10.4794139 L14.9985919,4.92630037 L14.3435125,4.27428571 L12.3038502,4.27062271 L11.6612976,4.90652015 L11.6517183,10.4735531 L12.2920602,11.1101832 Z M9.93996411,10.9292308 L9.95028032,4.44278388 L11.3238101,3.08527473 L15.3581855,3.09113553 L16.7258204,4.4567033 L16.7155042,10.941685 L15.3405006,12.3021245 L11.3075989,12.2926007 L9.93996411,10.9292308 Z M11.1123278,12.603956 L15.534298,12.6105495 L17.0272011,11.134359 L17.0389911,4.27868132 L15.5232449,2.76805861 L11.1292759,2.7592674 L9.6378465,4.23545788 L9.62605654,11.1211722 L11.1123278,12.603956 Z M9.35783505,11.2090842 L9.37036188,4.1621978 L11.0423249,2.50652015 L15.626407,2.51311355 L17.2917382,4.17758242 L17.2799483,11.2222711 L15.6079852,12.8779487 L11.0231663,12.8691575 L9.35783505,11.2090842 Z" id="Fill-2"></path>
                <path d="M18.6934903,12.3061538 L18.694964,11.1215385 L19.3043573,11.1237363 L19.3161473,4.28344322 L18.7089646,4.28344322 L18.7104383,3.09809524 L21.6719278,3.10249084 L21.6697171,4.28783883 L21.0441126,4.28783883 L21.0315858,11.1252015 L24.0380245,11.1317949 L24.0402351,10.5120147 L25.2479686,10.5149451 L25.2435474,12.3193407 L18.6934903,12.3061538 Z M25.5707187,12.6431502 L25.5751399,10.2167766 L23.7285381,10.2153114 L23.7278013,10.8211722 L21.3307559,10.8167766 L21.341809,4.61311355 L21.982151,4.61531136 L21.9850985,2.77868132 L18.3803196,2.77428571 L18.3773721,4.60945055 L19.0037135,4.60945055 L18.9926604,10.7969963 L18.3803196,10.7947985 L18.3766352,12.6314286 L25.5707187,12.6431502 Z M18.1091506,12.8841758 L18.1135718,10.5596337 L18.7406501,10.5596337 L18.7494925,4.8614652 L18.1246249,4.8592674 L18.1275724,2.52007326 L22.2393194,2.52593407 L22.235635,4.86879121 L21.6092936,4.86586081 L21.5989774,10.5640293 L23.4735803,10.5691575 L23.475791,9.94644689 L25.8271502,9.94864469 L25.8205184,12.8973626 L18.1091506,12.8841758 Z" id="Fill-3"></path>
                <path d="M27.7615135,12.3232967 L27.7622503,11.1386813 L28.3738543,11.1401465 L28.387118,4.30058608 L27.775514,4.30058608 L27.7777247,3.1159707 L34.2843063,3.12622711 L34.280622,4.72549451 L33.0758359,4.7232967 L33.0758359,4.30937729 L30.1136096,4.30498168 L30.1084515,7.13208791 L31.6706206,7.13428571 L31.6713575,6.7181685 L32.8636167,6.7218315 L32.8591955,8.73648352 L31.6669362,8.73428571 L31.66841,8.3189011 L30.1062409,8.31450549 L30.1010828,11.1423443 L33.0633091,11.1489377 L33.0655197,10.7350183 L34.2703058,10.7372161 L34.2666214,12.3364835 L27.7615135,12.3232967 Z M34.580529,12.6595604 L34.5849502,10.4112088 L32.7354009,10.409011 L32.7354009,10.8229304 L30.4142535,10.8185348 L30.4172009,8.62805861 L31.3412387,8.62805861 L31.3405018,9.04417582 L33.1856299,9.04637363 L33.1900511,6.41120879 L31.3456599,6.40901099 L31.3434493,6.8229304 L30.4208853,6.8214652 L30.4253065,4.63025641 L32.746454,4.63538462 L32.746454,5.04930403 L34.5937927,5.05150183 L34.597477,2.80241758 L27.4498165,2.78923077 L27.446869,4.6243956 L28.0562624,4.62659341 L28.0459461,10.8141392 L27.4358159,10.8119414 L27.4313947,12.6463736 L34.580529,12.6595604 Z M27.1779107,12.8998535 L27.181595,10.5745788 L27.8071995,10.5767766 L27.8182526,4.87860806 L27.1926481,4.87641026 L27.1970693,2.53501832 L34.8524348,2.54967033 L34.8465398,5.30351648 L32.5084443,5.29985348 L32.5091812,4.88813187 L30.6773168,4.88373626 L30.6736325,6.55406593 L31.0921759,6.55626374 L31.0929128,6.15699634 L33.444272,6.16139194 L33.4391139,9.29912088 L31.0877547,9.29545788 L31.0877547,8.89326007 L30.6692112,8.89326007 L30.6662638,10.5811722 L32.498865,10.5863004 L32.498865,10.1540659 L34.8369605,10.1584615 L34.8325393,12.9130403 L27.1779107,12.8998535 Z" id="Fill-4"></path>
                <path d="M36.2502814,10.9761172 L36.2613345,4.47721612 L37.6201269,3.13289377 L41.639028,3.14168498 L43.0073997,4.50505495 L43.0051891,5.97098901 L41.2779606,5.96659341 L41.2794343,4.9607326 L40.6398292,4.32410256 L38.6149044,4.31970696 L37.9738255,4.95413919 L37.9627725,10.5211722 L38.6023775,11.1578022 L40.6265655,11.1621978 L41.269855,10.5277656 L41.2713287,8.72117216 L40.5116135,8.71897436 L40.514561,7.72556777 L43.0022416,7.73216117 L42.9948728,10.989304 L41.6220799,12.349011 L37.6179163,12.3402198 L36.2502814,10.9761172 Z M37.4226451,12.6669597 L41.8151404,12.6728205 L43.3073067,11.19663 L43.3146754,7.42153846 L40.1711785,7.41494505 L40.1674941,9.03179487 L40.9588949,9.03472527 L40.9566843,10.319707 L40.433505,10.8361905 L38.8123861,10.8339927 L38.2928912,10.316044 L38.3017337,5.163663 L38.8227023,4.64498168 L40.4445581,4.64791209 L40.9662636,5.16732601 L40.9633161,6.29260073 L43.3176229,6.29699634 L43.3205704,4.31311355 L41.8202985,2.81494505 L37.4255926,2.80688645 L35.9341632,4.28307692 L35.9208995,11.1687912 L37.4226451,12.6669597 Z M35.6681524,11.2574359 L35.6814161,4.21054945 L37.3533791,2.55413919 L41.9079863,2.5629304 L43.588055,4.24058608 L43.5851075,6.53435897 L40.7113058,6.53069597 L40.7113058,5.22593407 L40.3848714,4.90065934 L38.8661778,4.89846154 L38.5390065,5.22227106 L38.5294272,10.2559707 L38.870599,10.59663 L40.3752921,10.5988278 L40.7024634,10.2750183 L40.704674,9.28161172 L39.914747,9.28087912 L39.9191682,7.1643956 L43.58216,7.17172161 L43.5747913,11.2420513 L41.8880908,12.9248352 L37.3334836,12.9167766 L35.6681524,11.2574359 Z" id="Fill-5"></path>
                <path d="M44.9898807,12.3554579 L44.9906176,11.1701099 L45.599274,11.1701099 L45.6125377,4.33347985 L45.0031444,4.33054945 L45.0060919,3.14593407 L47.9683182,3.15179487 L47.9661076,4.33714286 L47.3390293,4.33567766 L47.3279762,11.1730403 L47.9528439,11.1752381 L47.9513701,12.3598535 L44.9898807,12.3554579 Z M48.2630671,12.6858608 L48.2652777,10.8660806 L47.6271464,10.8638828 L47.6381994,4.66315018 L48.2778045,4.66315018 L48.2814889,2.82871795 L44.6774469,2.81919414 L44.6744994,4.65655678 L45.299367,4.65802198 L45.2890508,10.8602198 L44.6634463,10.8602198 L44.6597619,12.6792674 L48.2630671,12.6858608 Z M44.4040673,12.9298168 L44.4084885,10.6045421 L45.0355668,10.6067399 L45.045883,4.90930403 L44.4202785,4.90637363 L44.4239628,2.56791209 L48.5349729,2.5752381 L48.5305517,4.91589744 L47.9049472,4.91369963 L47.894631,10.6140659 L48.5194986,10.6140659 L48.5150774,12.9378755 L44.4040673,12.9298168 Z" id="Fill-6"></path>
                <path d="M54.7181414,8.15304029 L54.3769696,7.1610989 L54.0335871,8.15084249 L54.7181414,8.15304029 Z M53.7351539,8.41897436 L54.3791802,6.3625641 L55.0018372,8.42043956 L53.7351539,8.41897436 Z M55.4918572,8.71641026 L54.3813908,5.34058608 L53.2289227,8.71274725 L55.4918572,8.71641026 Z M50.1399543,12.3647619 L50.1414281,11.1794139 L50.5864989,11.1794139 L52.8789083,4.34644689 L52.2230921,4.34351648 L52.2253027,3.1589011 L56.6185349,3.16769231 L56.6170611,4.35230769 L55.8868207,4.35084249 L58.1527028,11.1940659 L58.5999843,11.1940659 L58.5962999,12.3801465 L55.7534469,12.3750183 L55.7556575,11.1904029 L56.3208385,11.1904029 L55.787343,9.57721612 L52.9459637,9.57282051 L52.4036258,11.1838095 L52.9702805,11.1838095 L52.9702805,12.3684249 L50.1399543,12.3647619 Z M53.295978,12.6944322 L53.2981886,10.86 L52.9120676,10.86 L53.1522879,9.89736264 L55.5928087,9.90175824 L55.8138704,10.863663 L55.4292231,10.863663 L55.4255387,12.6988278 L58.924208,12.7054212 L58.9271555,10.870989 L58.330289,10.870989 L56.3458921,4.67831502 L56.9294949,4.68051282 L56.9331793,2.84388278 L51.8996052,2.83435897 L51.8959208,4.66952381 L52.402152,4.67172161 L50.3949121,10.8548718 L49.8135199,10.8534066 L49.8113093,12.6878388 L53.295978,12.6944322 Z M49.5570884,12.9405861 L49.5622465,10.616044 L50.1871141,10.6175092 L52.102245,4.92227106 L51.6424368,4.91934066 L51.646858,2.58087912 L57.1866633,2.59040293 L57.1815052,4.93106227 L56.6597997,4.93106227 L58.5542982,10.6314286 L59.1659021,10.6328938 L59.1614809,12.9581685 L55.1720547,12.9515751 L55.1764759,10.627033 L55.5316483,10.627033 L55.3695364,10.1391209 L53.3740865,10.1347253 L53.1957634,10.6219048 L53.5516727,10.6219048 L53.5479883,12.9471795 L49.5570884,12.9405861 Z" id="Fill-7"></path>
                <path d="M60.4871877,12.381978 L60.4893983,11.1988278 L61.1010023,11.1988278 L61.114266,4.3614652 L60.502662,4.3585348 L60.5041358,3.17391941 L63.4670989,3.17978022 L63.4663621,4.36586081 L62.8392838,4.363663 L62.8289676,11.2032234 L65.8354063,11.2068864 L65.8354063,10.5878388 L67.0424029,10.5900366 L67.0379817,12.3951648 L60.4871877,12.381978 Z M67.3681005,12.7211722 L67.3732586,10.2940659 L65.5222356,10.2904029 L65.5222356,10.8962637 L63.126664,10.8926007 L63.1384539,4.69113553 L63.7773221,4.69113553 L63.7795328,2.8567033 L60.1784382,2.84937729 L60.1762276,4.68454212 L60.7988846,4.68673993 L60.7878316,10.8750183 L60.1784382,10.8728205 L60.1762276,12.7072527 L67.3681005,12.7211722 Z M59.9065324,12.96 L59.9109536,10.6347253 L60.5343475,10.6347253 L60.5446637,4.93728938 L59.9212698,4.93728938 L59.9256911,2.59809524 L64.0330168,2.60322344 L64.0293324,4.94388278 L63.4059386,4.94168498 L63.3948855,10.6420513 L65.2687515,10.6442491 L65.2709621,10.0222711 L67.624532,10.0266667 L67.6208476,12.9731868 L59.9065324,12.96 Z" id="Fill-8"></path>
                <path d="M69.5563162,12.3983883 L69.5585268,11.2145055 L70.1693939,11.2159707 L70.1811839,4.37641026 L69.5717905,4.37641026 L69.5732643,3.19106227 L76.0805828,3.20351648 L76.0783722,4.80131868 L74.8713755,4.79912088 L74.8713755,4.38446886 L71.9076755,4.38080586 L71.9032542,7.20717949 L73.4654233,7.20937729 L73.4668971,6.79545788 L74.6576826,6.79692308 L74.6539982,8.81157509 L73.4624758,8.80937729 L73.4624758,8.39692308 L71.8995699,8.39252747 L71.8951486,11.2181685 L74.8581118,11.2240293 L74.8581118,10.8101099 L76.0651085,10.8123077 L76.0628979,12.4123077 L69.5563162,12.3983883 Z M76.3745949,12.7361172 L76.3782792,10.487033 L74.533888,10.4841026 L74.5324143,10.8987546 L72.2075825,10.8936264 L72.2120037,8.70315018 L73.1367783,8.70315018 L73.1345677,9.12 L74.9819064,9.1243956 L74.9863276,6.48703297 L73.1382521,6.48483516 L73.1382521,6.89948718 L72.215688,6.89948718 L72.2178987,4.70608059 L74.5442043,4.71047619 L74.5427305,5.1243956 L76.3878586,5.12952381 L76.3915429,2.87750916 L69.246093,2.86432234 L69.2431455,4.70168498 L69.8540126,4.70168498 L69.8414858,10.8899634 L69.2306187,10.8877656 L69.2291449,12.7221978 L76.3745949,12.7361172 Z M68.9727134,12.9771429 L68.9771346,10.6526007 L69.6027392,10.6526007 L69.615266,4.95443223 L68.9881877,4.95223443 L68.9918721,2.61304029 L76.6457638,2.62769231 L76.6406057,5.37934066 L74.3047208,5.37567766 L74.3047208,4.96395604 L72.4728565,4.95882784 L72.469909,6.63355311 L72.8877155,6.63355311 L72.8877155,6.23208791 L75.2398116,6.23648352 L75.2339167,9.37421245 L72.8825574,9.37054945 L72.8825574,8.97128205 L72.4654877,8.96908425 L72.4632771,10.6591941 L74.2944046,10.6613919 L74.2966152,10.2320879 L76.6317633,10.2357509 L76.6258683,12.9903297 L68.9727134,12.9771429 Z" id="Fill-9"></path>
                <path d="M78.0455263,11.0541392 L78.0477369,9.91421245 L79.7580173,9.91641026 L79.7580173,10.5991941 L80.3983593,11.2350916 L82.452759,11.2372894 L83.093101,10.5874725 L83.0960485,9.10981685 L82.4424428,8.44021978 L79.4352673,8.43582418 L78.0514213,7.05413919 L78.0565794,4.56769231 L79.4293723,3.20871795 L83.4526946,3.21677656 L84.8313826,4.61164835 L84.8299088,5.78087912 L83.1019435,5.77721612 L83.1034172,5.06659341 L82.4505484,4.39919414 L80.4123599,4.39553114 L79.7668598,5.02923077 L79.7653861,6.59919414 L80.4064649,7.23802198 L83.444589,7.24461538 L84.823277,8.63875458 L84.8181189,11.0651282 L83.4644846,12.4248352 L79.3976868,12.4175092 L78.0455263,11.0541392 Z M79.2061,12.7420513 L83.6428077,12.7508425 L85.1320264,11.289304 L85.1357108,8.38600733 L83.6685982,6.93326007 L80.5987885,6.92739927 L80.0918204,6.40871795 L80.0955048,5.23948718 L80.6024729,4.72080586 L82.2545404,4.72520147 L82.7777197,5.24315018 L82.7762459,6.08783883 L85.1408689,6.09223443 L85.1445532,4.3610989 L83.6744932,2.89076923 L79.2090475,2.88271062 L77.730145,4.34644689 L77.7249869,7.29150183 L79.1965207,8.7596337 L82.2486454,8.76622711 L82.7696141,9.26879121 L82.7666666,10.3962637 L82.2309605,10.9142125 L80.6054204,10.9090842 L80.0866623,10.3918681 L80.0873992,9.60505495 L77.7213025,9.60212454 L77.7176182,11.274652 L79.2061,12.7420513 Z M77.4641341,11.3325275 L77.4678185,9.34937729 L80.3268827,9.35377289 L80.3246721,10.3310623 L80.6820551,10.6739194 L82.1720107,10.6761172 L82.5146563,10.3530403 L82.5153932,9.32959707 L82.1896957,9.01677656 L79.1353603,9.01238095 L77.4722397,7.35010989 L77.4773978,4.28783883 L79.1478871,2.63142857 L83.7363904,2.64095238 L85.4002479,4.30029304 L85.3965635,6.34424908 L82.522025,6.33985348 L82.5227619,5.30175824 L82.1985381,4.97575092 L80.648159,4.97355311 L80.3335145,5.29809524 L80.3335145,6.34864469 L80.6606858,6.67684982 L83.7282848,6.68344322 L85.3943529,8.34351648 L85.3869842,11.3471795 L83.715758,13.0028571 L79.1287285,12.9947985 L77.4641341,11.3325275 Z" id="Fill-10"></path>
                <path d="M7.6645027,20.4691575 L7.32333086,19.4764835 L6.98068528,20.4669597 L7.6645027,20.4691575 Z M6.6829889,20.7321612 L7.32627835,18.6779487 L7.94893537,20.7365568 L6.6829889,20.7321612 Z M8.43969227,21.0325275 L7.32775209,17.6567033 L6.17602081,21.0288645 L8.43969227,21.0325275 Z M3.08557873,24.6801465 L3.08705247,23.4955311 L3.53507078,23.4955311 L5.82526964,16.6618315 L5.17240085,16.6596337 L5.17461147,15.4772161 L9.56636989,15.4852747 L9.56415928,16.6684249 L8.83244516,16.6684249 L11.0990641,23.5079853 L11.5463455,23.5101832 L11.5441349,24.6955311 L8.69980816,24.6889377 L8.70201878,23.5035897 L9.2664629,23.5057875 L8.73517803,21.8933333 L5.89085127,21.8874725 L5.35219767,23.4999267 L5.91885241,23.4999267 L5.91664179,24.6845421 L3.08557873,24.6801465 Z M6.24233931,25.0098168 L6.24602367,23.1753846 L5.85842889,23.1753846 L6.0993861,22.2127473 L8.53917002,22.2178755 L8.76170543,23.1805128 L8.37411064,23.1805128 L8.37116315,25.0149451 L11.8698324,25.0215385 L11.8735168,23.1863736 L11.2773872,23.1841758 L9.29372717,16.9936996 L9.8765931,16.99663 L9.87954058,15.1592674 L4.84522959,15.1482784 L4.8422821,16.985641 L5.34925018,16.9878388 L3.34201026,23.170989 L2.76135495,23.1695238 L2.75767059,25.0061538 L6.24233931,25.0098168 Z M2.50418655,25.2559707 L2.50860778,22.9321612 L3.13347542,22.934359 L5.05081694,17.2376557 L4.58806118,17.2361905 L4.59248242,14.8984615 L10.1322878,14.9087179 L10.1271297,17.2471795 L9.60763474,17.2471795 L11.5021332,22.9475458 L12.1137372,22.9497436 L12.1100528,25.2735531 L8.11841598,25.2676923 L8.12283722,22.9424176 L8.47948337,22.9424176 L8.31663461,22.4552381 L6.32192151,22.4501099 L6.14359844,22.938022 L6.49877085,22.9402198 L6.49434961,25.2632967 L2.50418655,25.2559707 Z" id="Fill-11"></path>
                <path d="M13.2266353,24.6973626 L13.2273721,23.5127473 L13.8389761,23.5149451 L13.8515029,16.6768498 L13.2406358,16.674652 L13.2435833,15.4922344 L15.6406287,15.4958974 L19.4834173,21.8680586 L19.4944704,16.6849084 L18.8556021,16.6849084 L18.8570759,15.5024908 L21.8362503,15.5068864 L21.8333028,16.689304 L21.1922239,16.689304 L21.1789602,23.5273993 L21.8193022,23.5295971 L21.8193022,24.7149451 L19.3316216,24.7105495 L15.5757839,18.4548718 L15.5654677,23.5171429 L16.1910722,23.5186081 L16.1888616,24.703956 L13.2266353,24.6973626 Z M16.5005585,25.045348 L16.503506,23.1955311 L15.8801121,23.1933333 L15.8860071,19.7589011 L19.0619264,25.049011 L22.1302623,25.0556044 L22.1332098,23.2065201 L21.5076053,23.2035897 L21.5186583,17.016044 L22.1457366,17.0182418 L22.1479472,15.1808791 L18.5446421,15.1750183 L18.5409577,17.0116484 L19.1665622,17.0116484 L19.1599304,20.5515751 L15.9250613,15.1698901 L12.9164121,15.1632967 L12.9142014,17.0006593 L13.522121,17.0006593 L13.5110679,23.1882051 L12.9024115,23.1882051 L12.8987271,25.0387546 L16.5005585,25.045348 Z M12.6445062,25.2761172 L12.6489274,22.9508425 L13.2730582,22.9508425 L13.2833744,17.252674 L12.6599805,17.2512088 L12.6644018,14.9142125 L16.0436978,14.9171429 L18.9079201,19.6768498 L18.9123413,17.2621978 L18.2874737,17.2621978 L18.2918949,14.9215385 L22.4014313,14.9310623 L22.39701,17.267326 L21.7714055,17.267326 L21.7610893,22.9684249 L22.3859569,22.9684249 L22.3815357,25.292967 L18.9425531,25.2863736 L16.1380174,20.6482784 L16.1335962,22.9552381 L16.7577269,22.9574359 L16.7533057,25.2827106 L12.6445062,25.2761172 Z" id="Fill-12"></path>
                <path d="M27.8223054,22.9775092 L28.1634773,22.6405128 L28.1737935,17.605348 L27.8466222,17.2793407 L26.4023527,17.2771429 L26.3920364,22.9753114 L27.8223054,22.9775092 Z M26.1385524,23.2119414 L26.1496055,17.0243956 L27.9372575,17.0287912 L28.4258038,17.5159707 L28.4176982,22.6844689 L27.8812552,23.2141392 L26.1385524,23.2119414 Z M28.0890532,23.5408791 L28.7293951,22.9057143 L28.7404482,17.3401465 L28.1023169,16.7027839 L25.8379085,16.6991209 L25.8246448,23.5364835 L28.0890532,23.5408791 Z M23.4865493,24.7167033 L23.4865493,23.5320879 L24.0981532,23.5342857 L24.1106801,16.6939927 L23.499813,16.6939927 L23.5020236,15.5115751 L29.0860413,15.5196337 L30.4536761,16.8822711 L30.4404124,23.3701832 L29.0683563,24.7284249 L23.4865493,24.7167033 Z M29.2474163,25.0536996 L30.7697943,23.5445421 L30.7823211,16.7064469 L29.2658381,15.194359 L23.1741155,15.1826374 L23.1719049,17.02 L23.782035,17.02 L23.770982,23.2082784 L23.1601149,23.2060806 L23.1564305,25.0427106 L29.2474163,25.0536996 Z M22.9029465,25.2932601 L22.9073677,22.9679853 L23.534446,22.9701832 L23.5454991,17.2705495 L22.9184208,17.2705495 L22.9221052,14.9313553 L29.370474,14.9438095 L31.0350683,16.6038828 L31.0218046,23.652967 L29.3505784,25.3064469 L22.9029465,25.2932601 Z" id="Fill-13"></path>
                <path d="M37.01346,20.5235165 L36.6722881,19.5323077 L36.3281688,20.5235165 L37.01346,20.5235165 Z M36.0312093,20.7879853 L36.6737619,18.7315751 L37.295682,20.7879853 L36.0312093,20.7879853 Z M37.7864389,21.0868864 L36.6767094,17.7110623 L35.5227675,21.0824908 L37.7864389,21.0868864 Z M32.4360098,24.7315751 L32.4382204,23.5469597 L32.8832912,23.5491575 L35.1742269,16.7154579 L34.5198844,16.7139927 L34.522095,15.5315751 L38.9153272,15.5389011 L38.9131166,16.7227839 L38.1828762,16.7198535 L40.4480214,23.5645421 L40.8960397,23.5645421 L40.8938291,24.7491575 L38.0480286,24.7432967 L38.0502392,23.5579487 L38.6154202,23.5601465 L38.0833984,21.9476923 L35.2383348,21.9410989 L34.6996812,23.5535531 L35.2655991,23.5535531 L35.2633885,24.7381685 L32.4360098,24.7315751 Z M35.5912966,25.0641758 L35.5942441,23.229011 L35.208123,23.2268132 L35.4468696,22.2671062 L37.8888642,22.2715018 L38.1106627,23.2341392 L37.7245417,23.2341392 L37.7193836,25.069304 L41.2195266,25.0751648 L41.2217372,23.2385348 L40.6270813,23.2385348 L38.6426845,17.0480586 L39.2240766,17.0480586 L39.2262873,15.210696 L34.1941869,15.2048352 L34.1897656,17.0392674 L34.6982075,17.0414652 L32.6894938,23.2238828 L32.1088385,23.2238828 L32.105891,25.0575824 L35.5912966,25.0641758 Z M31.8516701,25.3103297 L31.8553545,22.9857875 L32.4831696,22.9879853 L34.3983005,17.2920147 L33.9355447,17.2898168 L33.9407028,14.9498901 L39.4819819,14.9608791 L39.4760869,17.3008059 L38.9551183,17.3008059 L40.8503536,23.00337 L41.4619576,23.00337 L41.4567995,25.3279121 L37.4658995,25.3213187 L37.4703208,22.996044 L37.82623,22.996044 L37.6655919,22.5088645 L35.6716157,22.5044689 L35.4903451,22.992381 L35.8462544,22.992381 L35.8418332,25.3169231 L31.8516701,25.3103297 Z" id="Fill-14"></path>
                <path d="M42.7821378,24.7510623 L42.7836116,23.5686447 L43.3959524,23.5686447 L43.409953,16.7305495 L42.7968753,16.7290842 L42.7990859,15.5466667 L45.7613122,15.5495971 L45.7605753,16.7349451 L45.1371814,16.7327473 L45.1246546,23.5708425 L48.1310933,23.5774359 L48.1333039,22.9554579 L49.3388268,22.9605861 L49.3358793,24.7642491 L42.7821378,24.7510623 Z M49.6615769,25.0902564 L49.6659981,22.6638828 L47.8193963,22.661685 L47.8179226,23.2668132 L45.4216141,23.2624176 L45.4326672,17.0587546 L46.0730092,17.0609524 L46.0759566,15.2243223 L42.4733884,15.2177289 L42.469704,17.054359 L43.0945717,17.054359 L43.0827817,23.2419048 L42.4733884,23.2419048 L42.469704,25.0770696 L49.6615769,25.0902564 Z M42.2022194,25.3305495 L42.2066406,23.0052747 L42.8315083,23.0052747 L42.8425614,17.3071062 L42.21622,17.3049084 L42.2213781,14.9649817 L46.3301776,14.9737729 L46.3257563,17.3136996 L45.6994149,17.3122344 L45.6890987,23.0118681 L47.5651754,23.0140659 L47.5666491,22.3920879 L49.920219,22.3972161 L49.9135872,25.3437363 L42.2022194,25.3305495 Z" id="Fill-15"></path>
                <path d="M50.7193569,16.743956 L50.7215676,15.5593407 L53.6845307,15.5652015 L53.6823201,16.747619 L53.0567156,16.747619 L53.0471363,22.9512821 L53.6845307,23.5879121 L55.7256668,23.5908425 L56.3807462,22.9424908 L56.3917993,16.7549451 L55.7669316,16.7527473 L55.7691423,15.5688645 L58.7321054,15.5739927 L58.7298948,16.7593407 L58.1042903,16.7571429 L58.0910266,23.4194139 L56.7204443,24.7776557 L52.6993326,24.7710623 L51.3176972,23.3915751 L51.3309609,16.743956 L50.7193569,16.743956 Z M51.0008421,17.0692308 L50.9875784,23.6267399 L52.4598491,25.0970696 L56.958454,25.1029304 L58.4204085,23.6575092 L58.4321984,17.0846154 L59.0423286,17.0846154 L59.0474868,15.2501832 L55.4404972,15.2406593 L55.4382866,17.0787546 L56.0801023,17.0787546 L56.0690492,22.7505495 L55.5326063,23.2663004 L53.8930656,23.2619048 L53.3588332,22.729304 L53.3698863,17.0736264 L53.9947539,17.0758242 L53.9969646,15.2391941 L50.3951332,15.2326007 L50.3914488,17.0692308 L51.0008421,17.0692308 Z M50.136491,17.3197802 L50.1416491,14.9798535 L54.2519224,14.9886447 L54.2475011,17.3271062 L53.6211597,17.3271062 L53.6108435,22.7014652 L53.9380148,23.0267399 L55.470709,23.0289377 L55.8008278,22.7051282 L55.8118808,17.329304 L55.1855395,17.329304 L55.1884869,14.9908425 L59.3134976,14.9974359 L59.3098133,17.3373626 L58.6687344,17.3351648 L58.6569445,23.7029304 L57.0026663,25.3556777 L52.4148999,25.3468864 L50.7517793,23.6882784 L50.7628324,17.321978 L50.136491,17.3197802 Z" id="Fill-16"></path>
                <path d="M60.8175275,23.4246154 L60.8293175,16.9381685 L62.2035842,15.5799267 L66.2364858,15.5872527 L67.6063313,16.9506227 L67.6026469,18.4187546 L65.8761553,18.414359 L65.8768922,17.421685 L65.2225496,16.7696703 L63.1850979,16.7652747 L62.5410716,17.4019048 L62.5307554,22.9682051 L63.1718342,23.60337 L65.2107597,23.6077656 L65.8673128,22.9601465 L65.8680497,22.025348 L67.6240162,22.0297436 L67.6225424,23.4370696 L66.2497495,24.7945788 L62.1851623,24.7857875 L60.8175275,23.4246154 Z M62.0053655,25.1147253 L66.4280726,25.1198535 L67.9062383,23.6590476 L67.9091857,21.7213187 L65.5401416,21.7169231 L65.5379309,22.7660073 L65.0169623,23.283956 L63.3803691,23.2795604 L62.8594004,22.7616117 L62.867506,17.6092308 L63.3906853,17.0934799 L65.0280154,17.0956777 L65.5482472,17.6136264 L65.5445628,18.7557509 L67.9158176,18.7594139 L67.919502,16.7301099 L66.4302832,15.2480586 L61.979575,15.2392674 L60.5028831,16.7176557 L60.4903562,23.5982418 L62.0053655,25.1147253 Z M60.2383459,23.7044689 L60.2508728,16.6575824 L61.9206252,15.0019048 L66.5069179,15.010696 L68.1707754,16.6722344 L68.167091,18.9821245 L65.2925525,18.9755311 L65.2932894,17.6715018 L64.9690656,17.3454945 L63.4348976,17.3440293 L63.1047789,17.6678388 L63.0966733,22.7037363 L63.4400557,23.043663 L64.9587494,23.0458608 L65.2851838,22.7220513 L65.2859206,21.4795604 L68.1619329,21.483956 L68.1589854,23.7191209 L66.4855486,25.3733333 L61.9022034,25.3638095 L60.2383459,23.7044689 Z" id="Fill-17"></path>
                <path d="M69.9730175,23.616337 L69.3621504,23.616337 L69.3614135,24.8009524 L72.322903,24.805348 L72.3265873,23.6207326 L71.7017197,23.6207326 L71.7120359,16.7804396 L72.3376404,16.7826374 L72.3413248,15.6002198 L69.3783616,15.5928938 L69.3746772,16.7753114 L69.9862812,16.7782418 L69.9730175,23.616337 Z" id="Fill-18"></path>
                <path d="M69.0504534,15.2672527 L72.6552323,15.2738462 L72.6530217,17.1112088 L72.0104691,17.109011 L71.9986792,23.3097436 L72.639758,23.3112088 L72.6375474,25.1331868 L69.0335054,25.127326 L69.0349791,23.305348 L69.6613205,23.3075458 L69.6716367,17.1038828 L69.0475059,17.1038828 L69.0504534,15.2672527 Z M68.793285,17.3551648 L69.4196264,17.3551648 L69.4085733,23.0555311 L68.7837057,23.0526007 L68.7800213,25.3771429 L72.8895577,25.3866667 L72.8932421,23.0613919 L72.2683744,23.0591941 L72.2794275,17.360293 L72.9057689,17.360293 L72.9094532,15.0240293 L68.7977063,15.0145055 L68.793285,17.3551648 Z" id="Fill-19"></path>
                <path d="M78.6751099,20.5986813 L78.3339381,19.6074725 L77.9905556,20.5986813 L78.6751099,20.5986813 Z M77.6935961,20.8638828 L78.334675,18.8074725 L78.9588057,20.8660806 L77.6935961,20.8638828 Z M79.4480889,21.1620513 L78.3361487,17.7862271 L77.1858912,21.1576557 L79.4480889,21.1620513 Z M74.0983966,24.8096703 L74.1006072,23.6250549 L74.5442043,23.6250549 L76.8358769,16.7913553 L76.1807975,16.7891575 L76.1830081,15.6067399 L80.5755034,15.6147985 L80.571819,16.7979487 L79.8430524,16.7979487 L82.1104082,23.639707 L82.5569528,23.639707 L82.5547421,24.8250549 L79.7104154,24.8206593 L79.712626,23.636044 L80.277807,23.636044 L79.7443115,22.0228571 L76.9014585,22.0169963 L76.3605943,23.6287179 L76.927249,23.6287179 L76.9257753,24.8140659 L74.0983966,24.8096703 Z M77.249999,25.1422711 L77.2551572,23.3049084 L76.8712467,23.3049084 L77.1092565,22.3430037 L79.5497772,22.3473993 L79.7730495,23.309304 L79.3847179,23.309304 L79.3825072,25.1459341 L82.8826503,25.1503297 L82.8848609,23.31663 L82.2894682,23.3144322 L80.3043344,17.123956 L80.8872003,17.123956 L80.8894109,15.2887912 L75.8550999,15.28 L75.8528893,17.1144322 L76.3605943,17.11663 L74.3526175,23.3012454 L73.7712253,23.2990476 L73.7690147,25.1349451 L77.249999,25.1422711 Z M73.5140569,25.3862271 L73.519215,23.0609524 L74.1426089,23.0631502 L76.0584767,17.3679121 L75.5979315,17.3649817 L75.6030896,15.0257875 L81.1436318,15.0367766 L81.1392106,17.3759707 L80.6175051,17.3759707 L82.5134773,23.0785348 L83.1228706,23.0785348 L83.1184494,25.4038095 L79.1260757,25.3964835 L79.1312338,23.072674 L79.4908275,23.072674 L79.326505,22.5840293 L77.331055,22.5803663 L77.1534688,23.0682784 L77.5079043,23.0704762 L77.5034831,25.3942857 L73.5140569,25.3862271 Z" id="Fill-20"></path>
                <path d="M87.0009554,0.568791209 C86.1410255,0.576849817 85.4491025,1.28087912 85.4572081,2.13582418 C85.4660506,2.98783883 86.1734479,3.67868132 87.0319041,3.66769231 C87.8925708,3.6589011 88.5844938,2.9578022 88.5771251,2.10358974 C88.5682826,1.24791209 87.8608853,0.559267399 87.0009554,0.568791209 M87.0355884,3.90358974 C86.0452322,3.91164835 85.2339358,3.11970696 85.2228828,2.13802198 C85.2125666,1.15413919 86.0083886,0.343882784 86.9980079,0.335824176 C87.9876273,0.324835165 88.8018711,1.11677656 88.8114505,2.10139194 C88.8225036,3.08600733 88.0259447,3.89186813 87.0355884,3.90358974" id="Fill-29"></path>
                <path d="M86.6080552,2.0210989 L86.8644867,2.0210989 C87.1592356,2.0232967 87.3427168,1.86578755 87.3427168,1.63282051 C87.3427168,1.37054945 87.1592356,1.25040293 86.8755398,1.25040293 C86.7377447,1.25040293 86.6507938,1.26139194 86.6080552,1.27238095 L86.6080552,2.0210989 Z M86.176248,0.971282051 C86.3383599,0.943443223 86.5830015,0.925128205 86.8335381,0.925128205 C87.1761836,0.925128205 87.410509,0.980805861 87.5696734,1.1170696 C87.6993629,1.2247619 87.7745239,1.39106227 87.773787,1.58886447 C87.773787,1.89582418 87.5652522,2.10315018 87.341243,2.18373626 L87.341243,2.19326007 C87.5121974,2.25846154 87.6131489,2.4225641 87.6735724,2.65113553 C87.7479965,2.94710623 87.8106306,3.2210989 87.8592642,3.31413919 L87.4112459,3.31194139 C87.3766129,3.24307692 87.3198737,3.04820513 87.2528184,2.75296703 C87.1850261,2.44454212 87.0730215,2.34417582 86.8254325,2.33831502 L86.6058445,2.33831502 L86.6043708,3.31194139 L86.1733006,3.31194139 L86.176248,0.971282051 Z" id="Fill-31"></path>
            </g>
            <g id="Group-36" sketch:type="MSShapeGroup">
                <path d="M36.0968169,29.9328718 C36.0968169,33.3241538 33.3343554,36.0749231 29.9261169,36.0749231 L9.99877077,36.0749231 C6.59001692,36.0749231 3.82704,33.3241538 3.82704,29.9328718 L3.82704,10.103641 C3.82704,6.71287179 6.59001692,3.96312821 9.99877077,3.96312821 L29.9261169,3.96312821 C33.3343554,3.96312821 36.0968169,6.71287179 36.0968169,10.103641 L36.0968169,29.9328718 Z" id="Fill-21" fill="#FEFEFE"></path>
                <path d="M8.44395846,1.98369231 C4.93264308,1.98369231 2.05267385,4.82625641 2.02484308,8.32061538 L1.83878923,31.4267692 C1.82435846,33.1339487 2.47941231,34.7431795 3.68232,35.9595897 C4.88471231,37.176 6.49116615,37.8524103 8.20636615,37.8667692 L31.4816508,38.0534359 C34.9934815,38.0534359 37.8719046,35.210359 37.9012815,31.7154872 L38.0878508,8.60933333 C38.1156815,5.08676923 35.2589046,2.19753846 31.7197585,2.16984615 L8.44395846,1.98369231 Z M31.4816508,39.5888205 L31.4161969,39.5872821 L8.19348154,39.401641 C6.06700462,39.3852308 4.07401231,38.5447179 2.58248923,37.0370256 C1.08993538,35.5272821 0.277689231,33.5318974 0.295212308,31.4149744 L0.481781538,8.30779487 C0.516827692,3.97394872 4.08844308,0.448820513 8.44395846,0.448820513 L8.50889692,0.448820513 L31.7316123,0.634974359 C36.1216585,0.669333333 39.6654431,4.25241026 39.6303969,8.62112821 L39.4438277,31.7293333 C39.4082662,36.0626667 35.8361354,39.5888205 31.4816508,39.5888205 L31.4816508,39.5888205 Z" id="Fill-23" fill="#FEFEFE"></path>
                <path d="M8.76432154,19.9724615 L8.81019077,9.57553846 L11.0150062,7.40169231 L17.4794754,7.43194872 L19.6636754,9.62476923 L19.6533677,11.9745128 L16.8867831,11.9616923 L16.8939985,10.3724615 L15.8498292,9.32220513 L12.5802292,9.30733333 L11.5504908,10.3247692 L11.5097754,19.2493846 L12.5302369,20.2734872 L15.7993215,20.288359 L16.8532831,19.2493846 L16.8594677,17.7534872 L19.6744985,17.7657949 L19.6636754,20.0211795 L17.4593754,22.1955385 L10.9480062,22.1663077 L8.76432154,19.9724615 Z M10.6578446,22.6863077 L17.7438677,22.7181026 L20.1161831,20.3791282 L20.1306138,17.2704103 L16.3368677,17.2529744 L16.3286215,18.9391282 L15.4911215,19.7657949 L12.8672985,19.754 L12.0364985,18.919641 L12.0730908,10.6581026 L12.9126523,9.83246154 L15.53596,9.84374359 L16.3662446,10.6781026 L16.3574831,12.5057949 L20.1512292,12.5242564 L20.1666908,9.27194872 L17.7917985,6.88630769 L10.6593908,6.85502564 L8.28707538,9.21810256 L8.23759846,20.254 L10.6578446,22.6863077 Z M7.82992923,20.4186154 L7.88198308,9.12015385 L10.5661062,6.47451282 L17.9123985,6.50835897 L20.5733292,9.17707692 L20.5552908,12.8806667 L15.95136,12.859641 L15.9601215,10.7709231 L15.4395831,10.2473333 L12.9811985,10.2360513 L12.45396,10.7550256 L12.4178831,18.8247692 L12.9641908,19.3745128 L15.3968062,19.3847692 L15.92456,18.8652821 L15.9328062,16.8719487 L20.5377677,16.8919487 L20.5212754,20.4755385 L17.8356062,23.1232308 L10.49086,23.0893846 L7.82992923,20.4186154 Z" id="Fill-25" fill="#1771A4"></path>
                <path d="M24.98229,25.8398462 L24.4390746,24.2475385 L23.8845208,25.8347179 L24.98229,25.8398462 Z M23.4041823,26.2593333 L24.4452592,22.966 L25.4317054,26.2690769 L23.4041823,26.2593333 Z M26.2171515,26.7480513 L24.4540208,21.3280513 L22.5919362,26.7311282 L26.2171515,26.7480513 Z M17.6277515,32.5721538 L17.6365131,30.671641 L18.3518669,30.6747179 L22.0502669,19.7265128 L21.0019746,19.7218974 L21.0102208,17.8224103 L28.0467669,17.8547179 L28.0390362,19.7542051 L26.8691131,19.7475385 L30.4690746,30.7306154 L31.1849438,30.7331795 L31.1761823,32.6326667 L26.6206977,32.6131795 L26.6289438,30.7136923 L27.5360208,30.7167692 L26.6882131,28.1254872 L22.1322131,28.106 L21.2606977,30.6880513 L22.1672592,30.6926667 L22.1590131,32.5931795 L17.6277515,32.5721538 Z M22.6826438,33.1157436 L22.6955285,30.1726667 L22.0755208,30.1711282 L22.4625746,28.6285641 L26.3743438,28.6470256 L26.7278977,30.1911282 L26.1058285,30.1890769 L26.0934592,33.1311282 L31.6982669,33.1572821 L31.7121823,30.2152308 L30.7571746,30.2106154 L27.6076592,20.2736923 L28.5363823,20.2777949 L28.5508131,17.3347179 L20.4876208,17.2988205 L20.4747362,20.2413846 L21.2854362,20.2449744 L18.0431515,30.1511282 L17.1144285,30.1485641 L17.0999977,33.0921538 L22.6826438,33.1157436 Z M16.6933592,33.4926667 L16.7103669,29.766 L17.7112438,29.7711282 L20.8061285,20.6470256 L20.0686131,20.6434359 L20.0835592,16.8936923 L28.9559054,16.9331795 L28.9409592,20.6824103 L28.1039746,20.6793333 L31.1163977,29.8311282 L32.0961438,29.8362564 L32.0781054,33.5618974 L25.68579,33.5331795 L25.7017669,29.8070256 L26.2759054,29.8101026 L26.0161515,29.026 L22.8212823,29.011641 L22.5311208,29.7936923 L23.1016515,29.7952308 L23.0856746,33.5213846 L16.6933592,33.4926667 Z" id="Fill-27" fill="#1771A4"></path>
            </g>
        </g>
    </g>
</svg>