<svg width="134" height="40" viewBox="0 0 134 40" xmlns="http://www.w3.org/2000/svg"><title>logo-vectorial-PANTONE 114-7C (1)</title><desc>Created with Sketch.</desc><g fill="none" fill-rule="evenodd"><g><g fill="#FEFEFE"><path d="M45.71 16.553l.012-6.485 1.372-1.36 4.036.008 1.366 1.363-.002 1.467-1.728-.002.003-.992-.655-.654-2.04-.004-.642.634-.01 5.57.64.634 2.04.004.654-.65.003-.932 1.756.003-.003 1.406-1.37 1.36-4.065-.01-1.368-1.363zm1.188 1.69l4.422.01 1.476-1.465.005-1.94-2.367-.003-.002 1.05-.52.517h-1.64l-.52-.52.01-5.154.522-.516 1.638.002.52.52-.002 1.14 2.37.004V9.86l-1.484-1.483-4.453-.01-1.476 1.48-.012 6.882 1.516 1.513zm-1.77-1.41l.013-7.047 1.67-1.655 4.59.01 1.663 1.66-.004 2.31-2.875-.006.003-1.3-.327-.327-1.534-.003-.328.325-.008 5.032.34.34 1.52.003.328-.324.002-1.242 2.874.006-.004 2.232-1.67 1.655-4.588-.007-1.664-1.66z"/><path d="M57.4 16.19l1.517.002.327-.323.01-5.052-.327-.323-1.533-.003-.328.324-.01 5.033.343.34zm-.597-.267l.01-5.183.523-.516 1.667.002.52.52-.01 5.18-.52.52-1.67-.005-.52-.517zm.328.828l2.054.005.643-.635.01-5.553-.655-.652-2.04-.003-.642.636-.01 5.567.64.636zm-2.352-.18l.01-6.486 1.374-1.358 4.035.006 1.367 1.366-.01 6.485-1.375 1.36-4.034-.01-1.368-1.363zm1.173 1.675l4.423.007 1.493-1.477.01-6.855-1.514-1.51-4.394-.01-1.492 1.476-.01 6.886 1.485 1.483zm-1.754-1.395l.013-7.047 1.67-1.655 4.585.006L62.13 9.82l-.012 7.043-1.672 1.656-4.584-.01-1.666-1.66z"/><path d="M63.532 17.947v-1.184l.61.002.013-6.84h-.608l.002-1.186 2.96.004-.002 1.185h-.625l-.013 6.836 3.006.007.003-.62 1.206.003-.004 1.804-6.55-.013zm6.877.337l.004-2.426-1.847-.002v.606l-2.398-.004.01-6.204.64.002.004-1.836-3.605-.005-.004 1.835h.626l-.01 6.188-.613-.002-.005 1.836 7.194.012zm-7.462.24l.004-2.323h.627l.008-5.698-.625-.002.003-2.34 4.112.007-.004 2.343-.626-.003-.01 5.698 1.874.005.002-.623 2.352.003-.007 2.948-7.712-.013z"/><path d="M72.6 17.964V16.78h.612l.014-6.838h-.612l.002-1.185 6.507.01-.004 1.6-1.206-.003V9.95l-2.962-.004-.005 2.827 1.562.002v-.416l1.192.003-.004 2.015-1.193-.003.002-.415-1.562-.004-.005 2.827 2.962.007.002-.414 1.205.002-.005 1.6-6.505-.014zm6.82.337l.003-2.248-1.85-.002v.414l-2.32-.004.003-2.19h.924v.415l1.844.002.005-2.635-1.846-.002-.002.414-.923-.002.004-2.19 2.32.004v.414l1.848.003.004-2.25-7.148-.013-.003 1.835.61.003-.01 6.187-.61-.002-.005 1.834 7.15.014zm-7.404.24l.004-2.324.626.002.01-5.698-.625-.003.006-2.34 7.655.014-.005 2.755-2.338-.004v-.41l-1.83-.005-.005 1.67.42.002v-.4l2.35.005-.004 3.138-2.352-.004v-.402h-.418l-.003 1.688 1.832.005v-.432l2.338.004-.004 2.754-7.654-.013z"/><path d="M81.09 16.617l.01-6.5 1.36-1.343 4.017.01 1.37 1.362-.003 1.466-1.728-.004.002-1.006-.64-.637-2.025-.004-.64.635-.012 5.567.64.637 2.025.003.643-.634.002-1.808-.76-.002.003-.993 2.488.006-.007 3.257-1.372 1.36-4.004-.01-1.367-1.363zm1.17 1.69l4.394.007 1.492-1.476.007-3.775-3.143-.007-.004 1.617.79.003v1.285l-.524.517-1.62-.002-.52-.518.008-5.152.52-.52 1.623.004.522.518-.003 1.126 2.354.004.003-1.984-1.5-1.498-4.396-.008-1.49 1.476-.015 6.886 1.5 1.498zm-1.753-1.41l.013-7.045 1.672-1.657 4.554.01 1.68 1.677-.002 2.293-2.874-.003v-1.305l-.327-.325-1.518-.003-.328.323-.01 5.034.342.34 1.504.003.327-.324.003-.993h-.79l.005-2.118 3.663.008-.007 4.07-1.686 1.683-4.555-.008-1.665-1.66z"/><path d="M89.828 17.996V16.81h.61l.013-6.835-.608-.003.003-1.185 2.962.006-.002 1.185h-.628l-.01 6.836.624.002V18l-2.962-.004zm3.274.33l.002-1.82h-.638l.01-6.202h.64l.004-1.834-3.604-.01-.003 1.838h.625l-.01 6.203h-.626l-.004 1.82 3.604.007zm-3.86.245l.005-2.324.627.002.01-5.698-.625-.003.002-2.338 4.11.006-.003 2.34h-.627l-.01 5.7h.625l-.004 2.323-4.11-.01z"/><path d="M99.557 13.794l-.342-.992-.343.99.685.002zm-.983.266l.644-2.056.622 2.057h-1.266zm1.756.297l-1.11-3.375-1.153 3.372 2.263.003zm-5.352 3.65l.002-1.187h.445l2.292-6.833-.655-.002.002-1.185 4.393.01v1.183h-.732l2.266 6.842h.448l-.003 1.186-2.843-.004.002-1.185h.565l-.534-1.612-2.842-.004-.542 1.61h.567v1.185l-2.832-.004zm3.156.328l.003-1.834h-.386l.24-.962 2.44.005.222.962h-.384l-.004 1.835 3.5.006.002-1.834h-.597l-1.986-6.193.584.002.004-1.837-5.034-.01-.004 1.836.507.003-2.007 6.183-.58-.002-.003 1.835 3.484.005zm-3.738.247l.005-2.325.626.002 1.915-5.697-.46-.003.005-2.338 5.54.01-.005 2.34h-.522l1.895 5.7.61.002L104 18.6l-3.99-.007.005-2.325h.355l-.162-.488-1.995-.004-.18.487h.357l-.004 2.325-3.99-.006z"/><path d="M105.326 18.023l.002-1.183h.61l.015-6.838-.612-.002.003-1.185 2.963.006v1.187l-.628-.002-.01 6.84 3.006.003v-.62l1.207.003-.004 1.806-6.55-.013zm6.88.34l.006-2.428-1.85-.004v.607l-2.397-.003.012-6.202h.64V8.498l-3.6-.008-.002 1.836.622.002-.01 6.188-.61-.002-.002 1.834 7.192.014zm-7.46.238l.003-2.324h.623l.01-5.698h-.623l.004-2.34 4.107.006-.002 2.34h-.624l-.01 5.7h1.873l.002-.62 2.353.004-.004 2.946-7.715-.013z"/><path d="M114.395 18.04l.002-1.184h.61l.013-6.84h-.61l.002-1.184 6.507.013-.003 1.597-1.207-.002v-.415l-2.964-.003-.004 2.826 1.562.002v-.414l1.192.002-.004 2.015-1.19-.003v-.412l-1.564-.004-.004 2.825 2.963.005v-.414l1.207.003-.003 1.6-6.505-.014zm6.818.337l.004-2.25-1.845-.002v.415l-2.326-.005.004-2.19h.925l-.002.416 1.847.005.005-2.637-1.848-.002v.415h-.923l.002-2.193 2.327.005-.002.413 1.846.006.004-2.25-7.145-.015-.003 1.838h.61l-.012 6.188h-.61l-.002 1.833 7.145.014zm-7.402.24l.006-2.323h.625l.014-5.7h-.627l.003-2.34 7.654.015-.005 2.75-2.337-.003v-.412l-1.832-.005-.002 1.675h.418v-.402l2.352.005-.006 3.137-2.35-.003v-.4l-.418-.002-.002 1.69 1.83.002.003-.43 2.335.005-.006 2.754-7.653-.012z"/><path d="M122.884 16.695l.002-1.14 1.71.002v.683l.64.636 2.055.002.642-.65.003-1.477-.654-.67-3.006-.003-1.384-1.382.005-2.486 1.373-1.36 4.023.008 1.38 1.395-.002 1.17-1.728-.005.002-.71-.653-.668-2.04-.003-.645.633v1.57l.64.64 3.038.006 1.38 1.394-.006 2.426-1.354 1.36-4.067-.007-1.352-1.365zm1.16 1.688l4.437.01 1.49-1.463.004-2.903-1.467-1.453-3.07-.006-.507-.518.004-1.17.507-.518 1.653.004.523.518v.845l2.363.003.003-1.73-1.47-1.47-4.465-.01-1.48 1.464-.005 2.946 1.472 1.468 3.052.007.52.503-.002 1.127-.536.518-1.626-.005-.52-.517.002-.787-2.366-.003-.004 1.673 1.49 1.467zm-1.74-1.41l.002-1.983 2.86.005-.003.977.358.343 1.49.002.343-.323V14.97l-.325-.312-3.054-.005-1.663-1.662.006-3.06 1.67-1.658 4.59.01 1.663 1.66-.005 2.043-2.875-.004v-1.037l-.323-.326-1.55-.002-.315.324v1.05l.327.328 3.067.006 1.666 1.66-.008 3.004-1.67 1.656-4.588-.008-1.664-1.662z"/><path d="M52.503 26.11l-.34-.992-.344.99.683.002zm-.982.263l.645-2.054.622 2.058-1.266-.005zm1.758.3L52.166 23.3l-1.152 3.372 2.264.004zm-5.354 3.648l.002-1.183h.448l2.29-6.834-.653-.002.003-1.182 4.392.008-.002 1.183h-.732l2.268 6.84h.447l-.002 1.187-2.845-.007.002-1.185.565.002-.53-1.613-2.846-.006-.54 1.613h.567l-.002 1.186-2.83-.005zm3.157.33l.004-1.834h-.387l.24-.962 2.44.005.223.962h-.387l-.003 1.834 3.498.007.004-1.836-.596-.002-1.984-6.19.583.003.003-1.838-5.034-.01-.003 1.837.508.002-2.008 6.182h-.58l-.004 1.835 3.485.004zm-3.737.247l.004-2.324.625.002 1.917-5.696-.463-.003.004-2.338 5.54.01-.004 2.338h-.52l1.895 5.7.612.003-.003 2.325-3.993-.006.004-2.327h.358l-.163-.487-1.995-.005-.178.49h.355l-.004 2.324-3.99-.007z"/><path d="M58.065 30.338v-1.184l.612.002.013-6.838-.61-.002.002-1.183 2.397.004 3.842 6.372.01-5.184h-.638l.002-1.182 2.98.004-.004 1.182h-.64l-.015 6.838.64.003v1.186l-2.487-.004-3.756-6.256-.01 5.062.626.002-.003 1.185-2.962-.007zm3.274.348l.002-1.85-.623-.002.004-3.434 3.176 5.29 3.07.007.002-1.85-.626-.002.01-6.188.628.002.002-1.838-3.603-.006-.004 1.837h.625l-.007 3.54-3.234-5.382-3.01-.006v1.838h.607l-.01 6.187h-.61l-.003 1.85 3.602.006zm-3.857.23l.004-2.324h.625l.01-5.698-.624-.002.005-2.337 3.38.003 2.863 4.76.005-2.415h-.624l.004-2.34 4.11.01-.005 2.335h-.625l-.01 5.7h.624l-.004 2.326-3.44-.007-2.804-4.638-.004 2.306.624.002-.004 2.326-4.11-.007z"/><path d="M72.66 28.62l.342-.338.01-5.036-.327-.326-1.444-.002-.01 5.698 1.43.003zm-1.683.233l.01-6.188 1.79.005.487.487-.008 5.168-.536.53-1.743-.002zm1.95.33l.64-.636.012-5.566-.64-.636-2.264-.004-.013 6.838 2.265.004zm-4.602 1.175v-1.185l.612.002.012-6.84h-.612l.002-1.182 5.585.008 1.367 1.363-.013 6.488-1.373 1.36-5.582-.012zm5.76.337l1.523-1.51.013-6.838-1.516-1.512-6.09-.01-.004 1.836h.61l-.01 6.19-.61-.003-.005 1.837 6.09.01zm-6.344.24l.006-2.326h.627l.01-5.698h-.626l.004-2.34 6.45.013 1.664 1.66-.014 7.05-1.67 1.652-6.45-.013z"/><path d="M81.852 26.165l-.34-.992-.345.992h.685zm-.982.264l.642-2.057.622 2.056H80.87zm1.755.298l-1.11-3.376-1.154 3.372 2.265.004zm-5.35 3.645l.002-1.185.445.002 2.29-6.834h-.654l.003-1.183 4.394.007-.002 1.184-.73-.003 2.264 6.846h.45l-.004 1.184-2.846-.006.003-1.185h.564l-.532-1.61-2.845-.008-.54 1.613h.567l-.002 1.184-2.828-.007zm3.155.332l.003-1.835-.386-.002.238-.96 2.442.005.222.962h-.387l-.005 1.835 3.5.006.002-1.836h-.594l-1.985-6.19h.583l.002-1.838-5.032-.006-.005 1.834.51.002-2.01 6.183h-.58l-.004 1.834 3.486.005zm-3.74.246l.004-2.323.628.002 1.915-5.697-.463-.002.005-2.34 5.54.012-.005 2.34h-.52l1.894 5.702h.61l-.005 2.325-3.99-.008.004-2.325h.355l-.16-.487-1.995-.005-.18.488h.355l-.005 2.325-3.99-.007z"/><path d="M87.62 30.392l.002-1.182h.612l.014-6.838-.613-.002.003-1.182 2.962.003v1.186l-.624-.002-.013 6.838 3.007.006.002-.622 1.205.006-.003 1.803-6.553-.013zm6.88.34l.004-2.427-1.846-.002-.002.605-2.396-.005.01-6.203.64.002.004-1.837-3.602-.006-.004 1.835h.625l-.012 6.188h-.608l-.004 1.835 7.192.013zm-7.46.24l.005-2.326h.625l.01-5.698-.625-.002.005-2.34 4.11.01-.006 2.34-.626-.003-.01 5.7 1.876.002v-.622l2.355.005-.008 2.947-7.71-.013z"/><path d="M95.558 22.385l.002-1.185 2.963.006-.002 1.183h-.625l-.01 6.202.638.637 2.04.002.656-.648.01-6.188-.625-.002.003-1.184 2.963.005-.002 1.185-.625-.002-.014 6.662-1.37 1.36-4.022-.008-1.382-1.38.013-6.647h-.612zm.28.325l-.012 6.558 1.472 1.47 4.5.006 1.46-1.445.013-6.574h.61l.006-1.835-3.607-.008-.003 1.838h.642l-.012 5.672-.537.515-1.638-.004-.535-.533.01-5.655.626.002.002-1.837-3.6-.006-.005 1.836h.61zm-.863.25l.005-2.34 4.11.01-.004 2.338h-.626l-.01 5.374.326.326 1.533.002.33-.324.01-5.376h-.626l.003-2.338 4.125.006-.004 2.34-.64-.002-.013 6.368-1.654 1.653-4.587-.01-1.663-1.658.01-6.367-.625-.002z"/><path d="M105.656 29.066l.012-6.487 1.374-1.36 4.033.008 1.37 1.364-.004 1.468-1.725-.005v-.992l-.654-.652-2.036-.004-.644.637-.01 5.566.64.634 2.04.005.656-.65v-.934l1.756.005v1.408l-1.374 1.358-4.064-.01-1.368-1.36zm1.188 1.69l4.423.005 1.478-1.46.003-1.938-2.37-.004-.002 1.05-.52.517-1.637-.004-.522-.517.008-5.153.523-.515 1.636.002.52.518-.003 1.142 2.37.003.005-2.03-1.49-1.48-4.45-.01-1.477 1.48-.01 6.88 1.514 1.516zm-1.767-1.41l.012-7.047 1.67-1.657 4.585.01 1.664 1.66-.004 2.31-2.875-.006.002-1.304-.324-.326-1.535-.002-.33.324-.008 5.035.344.34 1.517.002.327-.324V27.12l2.876.005-.003 2.235-1.673 1.654-4.583-.01-1.663-1.66z"/><path d="M114.81 29.257h-.61v1.185l2.96.004.005-1.184h-.625l.01-6.84.626.002.004-1.183-2.963-.006-.004 1.182.612.003-.014 6.837z"/><path d="M113.89 20.908l3.604.007-.003 1.837-.64-.002-.013 6.2.64.002v1.822l-3.605-.006v-1.822l.628.003.01-6.205h-.624l.003-1.837zm-.258 2.088h.626l-.01 5.7-.626-.002-.004 2.324 4.11.01.004-2.326-.625-.002.01-5.7h.627l.004-2.335-4.112-.01-.004 2.34z"/><path d="M123.514 26.24l-.342-.992-.343.992h.684zm-.982.265l.64-2.057.625 2.06-1.265-.003zm1.755.298l-1.112-3.376-1.15 3.372 2.262.003zm-5.35 3.648l.002-1.184h.443l2.29-6.834-.654-.002v-1.182l4.394.008-.004 1.183h-.728l2.267 6.84h.445l-.002 1.186-2.844-.004v-1.185h.566l-.533-1.613-2.843-.006-.54 1.612h.566l-.002 1.185-2.827-.004zm3.15.333l.007-1.837h-.384l.238-.962 2.44.004.224.962h-.39v1.837l3.5.004V28.96l-.594-.003-1.985-6.19h.583l.002-1.835-5.034-.01-.003 1.835.51.003-2.01 6.184-.58-.002-.003 1.836 3.48.007zm-3.734.244l.005-2.325.623.002 1.917-5.695-.46-.004.005-2.34 5.54.012-.004 2.34h-.522l1.896 5.702h.61l-.005 2.325-3.992-.007.005-2.324h.36l-.165-.49-1.995-.003-.178.49.354.002-.004 2.323-3.99-.008z"/><path d="M131.84 6.21c-.86.008-1.552.712-1.544 1.567.01.852.716 1.543 1.574 1.532.86-.01 1.553-.71 1.546-1.565-.01-.856-.717-1.545-1.577-1.535m.034 3.335c-.99.008-1.802-.784-1.813-1.766-.01-.985.787-1.795 1.776-1.803.99-.01 1.804.78 1.814 1.765.01.985-.786 1.79-1.776 1.803"/><path d="M131.447 7.662h.256c.295.002.478-.155.478-.388 0-.262-.182-.383-.466-.383-.138 0-.225.012-.267.023v.75zm-.432-1.05c.162-.028.406-.046.657-.046.343 0 .577.056.736.192.13.108.205.274.204.472 0 .307-.208.514-.432.595v.01c.17.064.272.23.332.457.074.296.137.57.186.663l-.448-.002c-.035-.07-.092-.264-.16-.56-.067-.307-.18-.408-.426-.414h-.22v.973h-.432l.003-2.34z"/></g><g><path d="M36.097 29.933c0 3.39-2.763 6.142-6.17 6.142H9.998c-3.41 0-6.173-2.75-6.173-6.142v-19.83c0-3.39 2.763-6.14 6.172-6.14h19.926c3.408 0 6.17 2.75 6.17 6.14v19.83z" fill="#FEFEFE"/><path d="M8.444 1.984c-3.51 0-6.39 2.842-6.42 6.337L1.84 31.428c-.016 1.707.64 3.316 1.842 4.533 1.203 1.216 2.81 1.892 4.524 1.907l23.276.186c3.51 0 6.39-2.843 6.42-6.338l.186-23.106c.028-3.523-2.83-6.412-6.368-6.44L8.444 1.984zM31.482 39.59l-.066-.003-23.223-.185c-2.126-.017-4.12-.857-5.61-2.365C1.09 35.527.277 33.532.294 31.415L.482 8.308C.517 3.974 4.088.448 8.444.448h.065L31.73.636c4.39.034 7.933 3.617 7.898 7.986l-.186 23.11c-.036 4.333-3.608 7.86-7.962 7.86z" fill="#FEFEFE"/><path d="M8.764 19.972L8.81 9.576l2.205-2.174 6.464.03 2.184 2.193-.01 2.35-2.767-.013.007-1.59-1.044-1.05-3.27-.015-1.03 1.018-.04 8.924 1.02 1.023 3.27.015 1.053-1.04.006-1.495 2.814.013-.01 2.255-2.205 2.176-6.512-.03-2.184-2.194zm1.894 2.714l7.086.032 2.372-2.34.015-3.108-3.793-.017-.008 1.686-.84.826-2.623-.012-.83-.834.036-8.262.84-.826 2.623.012.83.834-.01 1.828 3.795.018.017-3.252-2.375-2.386-7.133-.03-2.373 2.362-.05 11.036 2.42 2.432zM7.83 20.42l.052-11.3 2.684-2.645 7.346.033 2.66 2.67-.017 3.703-4.604-.02.01-2.09-.52-.523-2.46-.01-.526.518-.036 8.07.546.55 2.433.01.528-.52.008-1.993 4.605.02-.017 3.584-2.684 2.647-7.345-.034-2.66-2.67z" fill="#1771A4"/><path d="M24.982 25.84l-.543-1.592-.555 1.587 1.097.005zm-1.578.42l1.04-3.294.988 3.303-2.028-.01zm2.813.488l-1.763-5.42-1.862 5.403 3.625.018zm-8.59 5.824l.01-1.9.715.003 3.698-10.948-1.048-.005.008-1.9 7.037.033-.008 1.9-1.17-.007 3.6 10.983.715.003-.01 1.9-4.554-.02.01-1.9.906.004-.848-2.592-4.556-.02-.87 2.583.905.005-.008 1.9-4.532-.02zm5.056.544l.013-2.943-.62-.002.387-1.54 3.91.017.355 1.544h-.622l-.013 2.94 5.605.027.014-2.942-.955-.004-3.15-9.936.93.004.014-2.943-8.062-.036-.013 2.94.81.005-3.242 9.906h-.93L17.1 33.09l5.583.024zm-5.99.377l.017-3.727 1 .005 3.096-9.123-.737-.004.014-3.75 8.872.04-.015 3.75-.836-.004 3.012 9.15.98.006-.018 3.726-6.392-.03.016-3.725.574.003-.26-.784-3.195-.014-.29.782h.572l-.016 3.727-6.393-.027z" fill="#1771A4"/></g></g></g></svg>