<svg width="121" height="114" viewBox="0 0 121 114" xmlns="http://www.w3.org/2000/svg"><title>logo</title><desc>Created with Sketch.</desc><g fill="none" fill-rule="evenodd"><g><path d="M1.183 93.894l.016-8.852 1.86-1.855 5.478.01 1.855 1.86-.004 2.004-2.345-.002.003-1.354-.887-.892-2.767-.004-.87.865-.015 7.603.87.867 2.766.004.89-.886.002-1.272 2.384.004-.004 1.92-1.86 1.856-5.517-.013-1.857-1.86zM2.796 96.2l6 .013 2.003-1.997.006-2.646-3.214-.006L7.59 93l-.708.703-2.226-.002-.703-.707.01-7.035.71-.706 2.224.004.705.71-.002 1.556 3.214.005.003-2.767-2.015-2.026-6.043-.012-2.006 2.02-.016 9.393L2.796 96.2zM.393 94.28l.018-9.62 2.267-2.26 6.227.013 2.258 2.27-.006 3.15-3.9-.007.004-1.777-.444-.446-2.083-.002-.445.442-.01 6.87.462.466 2.063.002.443-.442.003-1.696 3.9.01-.006 3.044-2.265 2.26-6.228-.01-2.26-2.266z" fill="#1771A4"/><path d="M17.045 93.4l2.06.002.444-.44.012-6.896-.443-.44-2.08-.005-.446.443-.013 6.87.465.466zm-.808-.366l.012-7.074.71-.705 2.262.003.707.71-.015 7.072-.708.707-2.264-.006-.706-.706zm.444 1.13l2.788.006.872-.866.014-7.58-.89-.89-2.767-.005-.872.867-.013 7.6.87.868zm-3.19-.246l.013-8.854 1.864-1.853 5.475.01 1.856 1.863-.014 8.852-1.866 1.857-5.473-.013-1.856-1.862zm1.59 2.286l6 .01 2.027-2.016.016-9.358-2.057-2.062-5.963-.012-2.024 2.015-.017 9.4 2.017 2.024zM12.7 94.3l.016-9.62 2.27-2.26 6.22.01 2.26 2.272-.016 9.616-2.27 2.26-6.22-.012L12.7 94.3z" fill="#1771A4"/><path d="M25.37 95.798V94.18l.828.004.016-9.337h-.824l.002-1.618 4.02.005-.004 1.618h-.85l-.016 9.333 4.08.01.003-.847 1.64.003-.007 2.463-8.89-.018zm9.332.46l.006-3.312-2.506-.002v.827l-3.254-.005.015-8.468.87.003.003-2.507-4.892-.006-.004 2.505h.85l-.015 8.446-.83-.003-.006 2.507 9.762.016zm-10.126.33l.006-3.174h.85l.013-7.778-.848-.003.004-3.193 5.58.008-.004 3.198-.85-.004-.014 7.778 2.544.007.003-.85 3.19.003-.01 4.025-10.464-.018z" fill="#1771A4"/><path d="M37.675 95.82v-1.616l.83.002.02-9.336h-.83l.002-1.617 8.83.014-.005 2.183-1.635-.003v-.565l-4.02-.006-.007 3.86 2.12.002v-.568l1.62.005-.007 2.75-1.618-.003.002-.567-2.12-.006-.007 3.86 4.02.008.003-.565 1.635.003-.005 2.183-8.828-.02zm9.254.46l.005-3.07-2.51-.002v.565l-3.15-.006.004-2.99h1.253v.568l2.503.003.006-3.597-2.503-.002-.004.565-1.252-.002.006-2.99 3.15.007v.565l2.507.003.005-3.07-9.7-.018-.004 2.505.827.003-.014 8.446-.827-.002-.006 2.504 9.702.018zm-10.047.328l.005-3.174.85.003.014-7.778-.85-.004.007-3.196 10.388.02-.008 3.76-3.173-.006v-.562l-2.485-.006-.005 2.28.568.003v-.546l3.192.006-.007 4.283-3.19-.005v-.55h-.57l-.003 2.305 2.487.007v-.59l3.173.006-.006 3.76-10.387-.018z" fill="#1771A4"/><path d="M49.195 93.982l.015-8.87 1.844-1.836 5.454.012 1.857 1.86-.003 2.002-2.344-.006.002-1.373-.868-.868-2.748-.006-.87.866-.015 7.6.867.868 2.747.006.873-.866.002-2.466-1.032-.003.004-1.355 3.376.01-.01 4.445-1.863 1.856-5.434-.012-1.855-1.862zm1.59 2.308l5.962.008 2.025-2.015.01-5.153-4.266-.01-.005 2.208 1.075.004-.003 1.754-.71.705-2.2-.002-.705-.707.012-7.032.706-.708 2.2.004.71.71-.005 1.535 3.196.005.004-2.708-2.036-2.045-5.964-.01-2.024 2.014-.018 9.4 2.038 2.044zm-2.38-1.924l.018-9.62 2.27-2.26 6.18.012 2.28 2.29-.004 3.13-3.9-.004v-1.78l-.444-.445-2.06-.004-.445.442-.012 6.87.463.466 2.043.003.444-.442.003-1.356-1.072-.002.006-2.89 4.97.01-.01 5.557-2.288 2.297-6.18-.01-2.26-2.266z" fill="#1771A4"/><path d="M61.055 95.865v-1.618h.827l.018-9.332-.827-.004.004-1.616 4.02.008-.003 1.618-.85-.002-.016 9.333.848.004-.002 1.617-4.02-.005zm4.442.45l.003-2.483-.866-.003.015-8.465h.867l.005-2.504-4.89-.012-.005 2.508.848.002-.014 8.466h-.848l-.005 2.483 4.89.01zm-5.237.334l.006-3.175.85.003.015-7.777-.848-.003.005-3.192 5.58.01-.007 3.195-.85-.003-.013 7.78h.848l-.006 3.173-5.58-.01z" fill="#1771A4"/><path d="M74.257 90.13l-.463-1.355-.466 1.35.93.004zm-1.334.362l.874-2.807.845 2.81-1.72-.003zm2.384.406L73.8 86.29l-1.564 4.603 3.07.005zm-7.263 4.98l.002-1.618h.604l3.11-9.327-.89-.004.004-1.618 5.962.012-.002 1.617h-.99l3.074 9.34h.607l-.005 1.62-3.858-.008.003-1.617h.767l-.724-2.202-3.856-.006-.736 2.2h.77v1.616l-3.842-.005zm4.283.45l.003-2.504h-.524l.326-1.314 3.312.006.3 1.313h-.522l-.005 2.504 4.748.01.004-2.505h-.81l-2.694-8.454.792.003.005-2.508-6.83-.013-.006 2.504.687.003-2.724 8.44-.79-.002-.002 2.504 4.73.008zm-5.074.336l.007-3.173.848.003 2.6-7.774-.625-.005.006-3.192 7.517.013-.007 3.195h-.708l2.57 7.782.83.002-.005 3.174-5.414-.01.006-3.172h.48l-.22-.666-2.707-.006-.242.665h.484l-.005 3.173-5.417-.01z" fill="#1771A4"/><path d="M82.086 95.9l.003-1.614h.83l.017-9.333-.83-.004.002-1.618 4.02.008v1.62l-.852-.004-.014 9.336 4.08.005v-.845l1.638.003-.006 2.464-8.89-.02zm9.338.464l.007-3.313-2.51-.004v.827l-3.252-.005.016-8.465h.867l.004-2.504-4.887-.01-.003 2.504.845.003-.016 8.447-.827-.003-.003 2.505 9.76.02zm-10.126.326l.006-3.174h.846l.014-7.777h-.846l.006-3.194 5.574.007-.005 3.195-.846-.003-.015 7.78 2.543.004.003-.85 3.194.006-.005 4.022-10.47-.018z" fill="#1771A4"/><path d="M94.394 95.924l.003-1.616.83.002.015-9.336h-.827l.002-1.618 8.83.017-.002 2.18-1.638-.002v-.565l-4.022-.005-.006 3.858 2.12.003v-.564l1.617.002-.005 2.75-1.617-.003v-.563l-2.12-.006-.007 3.857 4.02.008v-.564l1.64.003-.004 2.183-8.83-.02zm9.253.46l.005-3.07-2.503-.003-.003.567-3.155-.007.006-2.99h1.255l-.003.57 2.507.005.006-3.6-2.508-.003v.566h-1.252l.003-2.994 3.157.006-.002.565 2.505.007.005-3.074-9.697-.018-.004 2.508h.828l-.017 8.447-.828-.003-.002 2.504 9.697.02zm-10.045.33l.006-3.173h.85l.016-7.777-.85-.003.004-3.193 10.387.02-.007 3.756-3.17-.005v-.562l-2.486-.007-.004 2.285h.567v-.548l3.192.006-.008 4.283-3.192-.005v-.544l-.566-.003-.003 2.307 2.484.003.003-.586 3.17.005-.01 3.76-10.385-.018z" fill="#1771A4"/><path d="M105.915 94.09l.003-1.557 2.32.003v.932l.87.868 2.788.003.87-.888.003-2.017-.888-.914-4.08-.005-1.88-1.886.008-3.395 1.863-1.855 5.46.01 1.87 1.905v1.596l-2.346-.004.002-.97-.887-.91-2.766-.006-.876.865v2.143l.87.872 4.122.01 1.87 1.902-.006 3.312-1.837 1.856-5.52-.01-1.835-1.86zm1.575 2.303l6.02.012 2.022-1.995.005-3.963-1.99-1.983-4.167-.008-.688-.708.005-1.596.688-.708 2.242.006.71.707-.002 1.153 3.21.006.004-2.363-1.996-2.007-6.06-.01-2.007 1.997-.007 4.02 1.997 2.004 4.142.01.706.685-.004 1.54-.727.706-2.206-.007-.705-.705V92.11l-3.21-.003-.005 2.283 2.02 2.003zm-2.364-1.924l.005-2.708 3.88.006-.002 1.334.485.468 2.022.003.465-.44v-1.398l-.44-.427-4.146-.006-2.257-2.27.007-4.18 2.267-2.26 6.228.013 2.258 2.265-.005 2.79-3.9-.006v-1.417l-.44-.445-2.103-.003-.427.442v1.434l.444.448 4.163.01 2.26 2.265-.01 4.1-2.267 2.26-6.225-.012-2.26-2.27z" fill="#1771A4"/><path d="M10.4 106.94l-.462-1.355-.465 1.352.928.003zm-1.33.36l.872-2.805.845 2.81-1.718-.006zm2.383.41l-1.51-4.61-1.562 4.604 3.073.005zm-7.266 4.978l.002-1.617h.607l3.108-9.327-.886-.003.002-1.614 5.96.01-.003 1.616h-.994l3.076 9.336.607.003-.004 1.62-3.86-.01.003-1.618.765.003-.72-2.2-3.86-.01-.732 2.202h.77l-.004 1.617-3.843-.006zm4.284.45l.006-2.504H7.95l.327-1.314 3.31.007.303 1.314h-.526l-.004 2.505 4.748.01.005-2.506-.81-.004-2.69-8.45.79.004.004-2.508-6.832-.015-.004 2.508.69.003-2.725 8.44-.788-.002-.005 2.507 4.73.005zm-5.072.336l.006-3.172.848.003 2.602-7.776-.628-.003.006-3.19 7.518.013-.007 3.192h-.705l2.57 7.78.83.004-.004 3.172-5.417-.008.006-3.174h.484l-.22-.665-2.708-.006-.243.666.482.003-.007 3.17-5.415-.01z" fill="#1771A4"/><path d="M17.95 112.712v-1.617l.83.003.018-9.334-.83-.003.005-1.613 3.253.005 5.215 8.698.016-7.075h-.867v-1.614l4.044.007-.004 1.614h-.87l-.018 9.335.87.003v1.618l-3.377-.006-5.097-8.54-.014 6.91.85.003-.004 1.618-4.02-.008zm4.443.475l.004-2.525-.846-.003.01-4.69 4.31 7.222 4.163.01.004-2.525-.85-.004.016-8.446.85.003.004-2.508-4.89-.008-.005 2.507h.85l-.01 4.833-4.39-7.346-4.083-.01-.004 2.51h.825l-.014 8.445h-.826l-.005 2.526 4.888.01zm-5.233.315l.006-3.174h.847l.014-7.778-.846-.002.007-3.19 4.586.004 3.887 6.497.006-3.297h-.848l.006-3.195 5.577.013-.005 3.19h-.85l-.013 7.782h.848l-.006 3.173-4.667-.01-3.806-6.33-.005 3.15.847.002-.006 3.174-5.576-.008z" fill="#1771A4"/><path d="M37.757 110.364l.463-.46.014-6.873-.444-.444-1.96-.003-.014 7.778 1.94.004zm-2.285.32l.015-8.446 2.426.006.663.665-.01 7.054-.73.723-2.364-.003zm2.647.45l.868-.868.015-7.597-.866-.87-3.073-.006-.018 9.333 3.073.006zm-6.247 1.604v-1.617l.83.004.017-9.337h-.83l.004-1.614 7.578.01 1.856 1.86-.018 8.857-1.862 1.854-7.575-.016zm7.818.46l2.067-2.06.017-9.334-2.058-2.064-8.267-.016-.004 2.508h.828l-.015 8.447-.83-.004-.005 2.507 8.266.015zm-8.61.327l.007-3.174.85.004.016-7.78h-.85l.004-3.193 8.75.018 2.26 2.266-.018 9.622-2.27 2.257-8.75-.018z" fill="#1771A4"/><path d="M50.23 107.015l-.462-1.353-.468 1.353h.93zm-1.332.36l.87-2.806.846 2.806h-1.716zm2.38.41l-1.505-4.61-1.566 4.603 3.072.006zm-7.26 4.974l.004-1.618.604.003 3.108-9.328-.888-.002.004-1.614 5.962.01-.003 1.617-.992-.004 3.074 9.343h.607l-.004 1.617-3.86-.008.002-1.618.767.003-.723-2.2-3.86-.01-.732 2.2h.768l-.002 1.618-3.837-.01zm4.282.453l.005-2.505-.524-.003.325-1.31 3.314.006.3 1.315h-.524l-.008 2.505 4.75.008.003-2.507h-.805l-2.694-8.45h.79l.004-2.507-6.83-.008-.006 2.504.69.002-2.726 8.44h-.788l-.003 2.502 4.73.01zm-5.075.336l.005-3.174.853.003 2.6-7.776-.63-.003.008-3.193 7.52.015-.008 3.194h-.707l2.572 7.784h.83l-.007 3.173-5.416-.01.006-3.173h.483l-.218-.665-2.706-.006-.246.665h.483l-.006 3.173-5.415-.01z" fill="#1771A4"/><path d="M58.06 112.785v-1.614h.832l.02-9.333-.833-.002.002-1.614 4.02.005v1.618l-.847-.003-.017 9.334 4.08.01.003-.85 1.637.007-.004 2.463-8.894-.018zm9.335.463l.006-3.312-2.505-.003-.002.826-3.252-.007.016-8.468.87.003.003-2.507-4.89-.008-.005 2.507h.848l-.016 8.445h-.827l-.005 2.505 9.76.018zm-10.123.328l.006-3.174h.848l.015-7.778-.85-.003.008-3.193 5.576.012-.006 3.193-.85-.002-.014 7.78 2.546.004.002-.85 3.194.008-.01 4.022-10.464-.018z" fill="#1771A4"/><path d="M68.83 101.856l.004-1.617 4.02.007-.002 1.614h-.85l-.012 8.47.865.868 2.77.004.89-.885.014-8.446-.85-.002.004-1.617 4.02.008-.002 1.618-.85-.002-.017 9.094-1.86 1.853-5.457-.007-1.875-1.883.018-9.075h-.83zm.383.444l-.018 8.95 1.998 2.007 6.105.008 1.984-1.972.016-8.973h.828l.007-2.503-4.895-.013-.003 2.508h.87l-.014 7.743-.727.703-2.225-.005-.725-.728.015-7.72.848.003.003-2.507-4.89-.007-.004 2.506h.827zm-1.173.34l.007-3.192 5.578.012-.006 3.192h-.85l-.015 7.335.444.445 2.08.002.447-.44.015-7.34h-.85l.004-3.19 5.598.008-.005 3.194-.87-.004-.017 8.692-2.245 2.257-6.226-.01-2.257-2.265.015-8.69-.85-.004z" fill="#1771A4"/><path d="M82.535 110.975l.016-8.854 1.866-1.853 5.473.01 1.858 1.86-.005 2.005-2.343-.006v-1.355l-.887-.89-2.765-.005-.874.87-.014 7.597.87.867 2.767.005.89-.884.002-1.275 2.382.006-.002 1.922-1.863 1.853-5.516-.012-1.855-1.858zm1.612 2.307l6.002.007 2.005-1.995.004-2.645-3.216-.006-.003 1.432-.706.707-2.22-.006-.708-.707.01-7.033.71-.704 2.223.003.705.707-.005 1.56 3.218.004.005-2.77-2.02-2.023-6.04-.012-2.005 2.018-.017 9.392 2.057 2.07zm-2.398-1.925l.016-9.62 2.266-2.26 6.224.013 2.258 2.268-.005 3.153-3.902-.008v-1.78l-.44-.445-2.08-.002-.45.442-.01 6.874.466.465 2.06.003.444-.442v-1.696l3.904.006-.004 3.05-2.27 2.26-6.22-.014-2.26-2.265z" fill="#1771A4"/><path d="M94.96 111.236h-.83v1.617l4.02.006.003-1.618h-.848l.014-9.337.85.003.004-1.614-4.022-.01-.005 1.614.83.004-.017 9.334z" fill="#1771A4"/><path d="M93.707 99.84l4.893.01-.003 2.507-.872-.003-.016 8.464.87.002-.004 2.487-4.89-.008v-2.488l.85.003.014-8.468h-.846l.004-2.507zm-.348 2.85h.85l-.016 7.78-.85-.003-.003 3.173 5.578.013.004-3.174-.847-.004.014-7.78h.85l.005-3.188-5.58-.013-.006 3.195z" fill="#1771A4"/><path d="M106.77 107.117l-.464-1.353-.466 1.353h.93zm-1.333.362l.87-2.808.847 2.81-1.717-.003zm2.38.406l-1.508-4.608-1.562 4.602 3.07.006zm-7.26 4.98l.004-1.618h.603l3.11-9.328-.89-.003.004-1.614 5.96.01-.004 1.616h-.99l3.078 9.338h.607l-.003 1.618-3.86-.006.003-1.617h.767l-.724-2.202-3.858-.007-.734 2.2h.77l-.003 1.618-3.837-.005zm4.278.453l.007-2.51h-.52l.322-1.312 3.312.006.303 1.313h-.528l-.003 2.507 4.75.006.002-2.503-.808-.003-2.694-8.45h.79l.004-2.505-6.832-.013-.003 2.504.688.004-2.725 8.442-.79-.003-.002 2.506 4.725.01zm-5.07.332l.007-3.174.846.003 2.6-7.773-.625-.004.007-3.193 7.52.015-.007 3.193h-.708l2.573 7.784h.827l-.006 3.174-5.42-.01.008-3.172h.488l-.223-.667-2.708-.005-.24.666.48.003-.006 3.173-5.415-.01z" fill="#1771A4"/><path d="M88.04 58.37c0 6.612-5.36 11.976-11.974 11.976H37.4c-6.613 0-11.974-5.364-11.974-11.977V19.7c0-6.612 5.36-11.974 11.975-11.974h38.666c6.613 0 11.973 5.362 11.973 11.974V58.37z" fill="#1771A4"/><path d="M34.384 3.868c-6.813 0-12.4 5.543-12.455 12.357l-.362 45.057c-.028 3.33 1.243 6.467 3.577 8.84 2.333 2.37 5.45 3.69 8.778 3.718l45.16.364c6.815 0 12.4-5.544 12.457-12.36l.362-45.056c.054-6.87-5.49-12.503-12.356-12.557L34.384 3.87zm44.7 73.33l-.127-.003-45.06-.362c-4.125-.032-7.992-1.67-10.886-4.61-2.895-2.945-4.47-6.836-4.437-10.964l.362-45.06C19.003 7.75 25.933.875 34.385.875h.125l45.06.363c8.517.067 15.393 7.054 15.325 15.573l-.362 45.062c-.07 8.45-7 15.326-15.45 15.326z" fill="#1771A4"/><path d="M35.005 38.946l.09-20.274 4.277-4.24 12.543.06 4.238 4.276-.02 4.582-5.368-.025.014-3.1-2.027-2.047-6.344-.03-2 1.985-.078 17.403 1.98 1.997 6.343.03 2.045-2.027.012-2.917 5.462.023-.02 4.398-4.278 4.24-12.634-.056-4.237-4.278zm3.674 5.292l13.748.062 4.603-4.56.03-6.063-7.362-.034-.016 3.288-1.625 1.613-5.09-.023-1.613-1.627.07-16.11 1.63-1.61 5.09.022 1.61 1.627-.016 3.564 7.36.036.03-6.342-4.607-4.652-13.838-.06-4.603 4.607-.097 21.52 4.696 4.743zm-5.488-4.422l.1-22.032 5.21-5.16 14.253.067 5.163 5.205-.035 7.222-8.933-.04.017-4.074-1.01-1.02-4.77-.023-1.023 1.012-.07 15.736 1.06 1.072 4.72.02 1.024-1.013.016-3.887 8.935.04-.033 6.987-5.21 5.163-14.252-.066-5.163-5.208z" fill="#FEFEFE"/><path d="M66.473 50.388l-1.054-3.105-1.077 3.095 2.13.01zm-3.062.818l2.02-6.422 1.915 6.44-3.934-.018zm5.46.953l-3.422-10.57-3.613 10.536 7.034.033zM52.202 63.515l.017-3.706 1.388.006 7.176-21.35-2.034-.008.016-3.704 13.653.063-.016 3.704-2.27-.012 6.985 21.417 1.388.005-.017 3.704-8.838-.038.016-3.704 1.76.006-1.645-5.053-8.84-.038-1.69 5.035 1.758.01-.015 3.705-8.792-.04zm9.808 1.06l.026-5.74-1.203-.002.75-3.008 7.59.036.687 3.01-1.207-.003-.024 5.736 10.874.05.027-5.736-1.852-.01-6.11-19.376 1.8.008.03-5.74-15.646-.07-.025 5.74 1.573.006-6.29 19.317-1.803-.005-.028 5.74 10.83.046zm-11.62.735l.033-7.266 1.942.01 6.005-17.792-1.43-.007.028-7.312 17.215.077-.03 7.31-1.623-.005 5.845 17.846 1.9.01-.034 7.266-12.402-.056.03-7.266 1.115.006-.504-1.53-6.2-.027-.563 1.525 1.107.003-.03 7.267-12.404-.056z" fill="#FEFEFE"/><path d="M118.068 79.776c-1.167.01-2.106.972-2.095 2.14.012 1.162.972 2.105 2.137 2.09 1.168-.012 2.107-.97 2.097-2.135-.012-1.167-.972-2.107-2.14-2.094m.048 4.552c-1.344.01-2.445-1.07-2.46-2.41-.014-1.343 1.066-2.45 2.41-2.46 1.342-.015 2.447 1.066 2.46 2.41.015 1.344-1.066 2.444-2.41 2.46" fill="#1771A4"/><path d="M117.535 81.76h.348c.4.002.65-.213.65-.53 0-.36-.25-.523-.635-.523-.187 0-.305.015-.363.03v1.022zm-.586-1.434c.22-.038.55-.063.89-.063.466 0 .784.076 1 .262.176.147.278.374.277.644 0 .418-.283.7-.587.81v.014c.232.09.37.313.45.625.102.403.187.777.253.904l-.608-.003c-.047-.093-.124-.36-.215-.762-.092-.42-.244-.558-.58-.566h-.298l-.002 1.33h-.585l.004-3.196z" fill="#1771A4"/></g></g></svg>