<svg xmlns="http://www.w3.org/2000/svg" width="32" height="32" viewBox="0 0 32 32"><path d="M31.25 6.438l-5-4C25.895 2.154 25.453 2 25 2H7c-.454 0-.895.154-1.25.438l-5 4c-.654.524-.912 1.4-.647 2.195l2 6c.197.59.66 1.057 1.25 1.26.21.07.43.107.647.107.348 0 .693-.09 1-.268V28c0 1.104.896 2 2 2h18c1.104 0 2-.896 2-2V15.732c.307.177.652.268 1 .268.22 0 .438-.036.648-.108.59-.202 1.05-.668 1.248-1.26l2-6c.266-.794.008-1.67-.646-2.194zM19.754 4C19.2 5.16 17.736 6 16 6s-3.202-.84-3.754-2h7.508zM28 14l-3-2v16H7V12l-3 2-2-6 5-4h4.177c.557 1.722 2.496 3 4.823 3s4.266-1.278 4.822-3H25l5 4-2 6z" fill="#444"/></svg>