<svg xmlns="http://www.w3.org/2000/svg" width="32" height="32" viewBox="0 0 32 32"><path d="M16 10c-4.42 0-8 3.582-8 8s3.58 8 8 8c4.418 0 8-3.58 8-8s-3.582-8-8-8zm4.555 11.906c-2.156 2.516-5.943 2.807-8.46.65-2.516-2.156-2.806-5.944-.65-8.46 2.156-2.516 5.944-2.806 8.46-.65 2.515 2.156 2.806 5.945.65 8.46zM16 14c.276 0 .5.225.5.5s-.224.5-.5.5c-1.657 0-3 1.344-3 3v.002c0 .275-.224.5-.5.5s-.5-.225-.5-.5V18c0-2.208 1.79-4 4-4zm13.492-4.958l-4.334-.723-1.373-3.435C23.325 3.74 22.232 3 21 3H11c-1.232 0-2.326.74-2.786 1.886L6.842 8.32 2.51 9.04C1.054 9.282 0 10.527 0 12v15c0 1.654 1.346 3 3 3h26c1.654 0 3-1.346 3-3V12c0-1.473-1.055-2.717-2.508-2.958zM30 27c0 .553-.447 1-1 1H3c-.553 0-1-.447-1-1V12c0-.49.354-.906.836-.986l5.444-.907 1.79-4.478c.154-.38.52-.63.93-.63h10c.408 0 .775.25.928.63l1.79 4.477 5.446.907c.482.08.836.497.836.986v15z" fill="#444"/></svg>