<svg xmlns="http://www.w3.org/2000/svg" width="32" height="32" viewBox="0 0 32 32"><path d="M29.363 4.637c3.516 3.514 3.516 9.213 0 12.727L18.396 28.332c-.39.392-1.023.392-1.414 0-.393-.39-.393-1.022 0-1.414L27.808 16.09c2.734-2.733 2.734-7.163-.002-9.898-2.73-2.734-7.164-2.734-9.898 0L3.46 20.47c-1.952 1.95-1.952 5.117 0 7.07 1.954 1.952 5.118 1.952 7.07 0L25.12 13.12c1.17-1.17 1.17-3.073 0-4.243s-3.07-1.17-4.24 0L9.91 19.847c-.39.39-1.023.39-1.414 0-.39-.392-.39-1.023 0-1.415L19.464 7.465c1.95-1.952 5.117-1.952 7.07 0s1.953 5.118 0 7.07l-14.59 14.42c-2.728 2.728-7.17 2.728-9.898 0s-2.73-7.172 0-9.9l14.59-14.418c3.514-3.516 9.213-3.516 12.727 0z" fill="#444"/></svg>