<svg xmlns="http://www.w3.org/2000/svg" width="32" height="32" viewBox="0 0 32 32"><path d="M15 10c0-.552.448-1 1-1s1 .448 1 1-.448 1-1 1-1-.448-1-1zm0 12c0-.552.448-1 1-1s1 .448 1 1-.448 1-1 1-1-.448-1-1zm-6-6c0-.552.448-1 1-1s1 .448 1 1-.448 1-1 1-1-.448-1-1zm12 0c0-.552.448-1 1-1s1 .448 1 1-.448 1-1 1-1-.448-1-1zm-10.243 4.242c0-.552.448-1 1-1s1 .448 1 1-.448 1-1 1-1-.448-1-1zm0-8.485c0-.552.448-1 1-1s1 .448 1 1-.448 1-1 1-1-.448-1-1zm8.485 8.485c0-.552.448-1 1-1s1 .448 1 1-.448 1-1 1-1-.448-1-1zM26 14c-.07 0-.13.033-.197.04-.348-1.745-1.17-3.306-2.297-4.594L22.07 1.634C21.895.687 21.068 0 20.104 0h-8c-.964 0-1.79.688-1.967 1.635l-1.4 7.55C7.057 10.97 6 13.35 6 16c0 2.583 1.014 4.905 2.62 6.678l1.413 7.688C10.21 31.312 11.036 32 12 32h8c.963 0 1.79-.688 1.967-1.635l1.424-7.682c1.19-1.31 2.054-2.92 2.413-4.725.068.01.127.042.197.042 1.104 0 2-.896 2-2 0-1.105-.896-2-2-2zM12.104 2h8l1 5.387c-1.477-.86-3.168-1.387-5-1.387-1.83 0-3.523.528-5 1.387l1-5.387zM20 30h-8l-1-5.387C12.476 25.47 14.168 26 16 26c1.83 0 3.524-.53 5-1.387L20 30zm-4-6c-4.41 0-8-3.59-8-8s3.59-8 8-8 8 3.59 8 8-3.59 8-8 8zm4.94-12.974c.122.12.134.316.03.45l-2.427 3.02-1.848 2.225c-.19.183-.45.276-.7.278-.268-.002-.52-.106-.706-.292s-.29-.435-.29-.698c0-.272.105-.526.296-.718l5.192-4.285c.137-.11.332-.1.453.02z" fill="#444"/></svg>