<svg xmlns="http://www.w3.org/2000/svg" width="32" height="32" viewBox="0 0 32 32"><path d="M28.11 5.022l-1.214-3.655C26.626.55 25.86 0 25 0H7c-.862 0-1.625.55-1.898 1.367L3.877 5.024C2.833 5.09 2 5.94 2 7v3c0 1.104.896 2 2 2h1.034c0 .075-.03.146-.02.22l2 18C7.123 31.233 7.98 32 9 32h14c1.02 0 1.875-.768 1.986-1.78l2-18c.01-.074-.02-.145-.02-.22H28c1.104 0 2-.896 2-2V7c0-1.065-.84-1.917-1.89-1.978zM7 2h18l1 3H6l1-3zm2 28l-.333-3h14.666L23 30H9zm14.443-4H8.555l-1.11-10h17.11l-1.112 10zm1.223-11H7.333L7 12h18l-.334 3zM28 10H4V7h24v3z" fill="#444"/></svg>