<svg xmlns="http://www.w3.org/2000/svg" width="32" height="32" viewBox="0 0 32 32"><path d="M31.414 9.677l-5.08-5.08c-.375-.376-.885-.587-1.414-.587H7.08c-.53 0-1.038.21-1.413.586l-5.08 5.08c-.393.393-.59.91-.587 1.428.003.47.17.94.506 1.316l14 14.908c.38.428.923.672 1.494.672s1.115-.244 1.494-.672l14-14.908c.342-.385.51-.867.506-1.348-.004-.506-.2-1.01-.586-1.395zM18.22 11.01h-4.44L16 9.16l2.22 1.85zm-1.438-2.5l2.732-2.278 2.018 2.018L19 10.36l-2.218-1.85zM13 10.36l-2.532-2.11 2.018-2.018L15.22 8.51 13 10.36zm5.49 1.65L16 24.463 13.51 12.01h4.98zm1.02 0h4.906l-7.36 12.27 2.454-12.27zm.27-1l2.462-2.05 2.05 2.05H19.78zm.927-5h3.512l-1.917 1.597-1.596-1.597zM16 7.86l-2.22-1.85h4.438L16 7.86zm-6.304-.253L7.78 6.01h3.513L9.696 7.607zm.062 1.352l2.462 2.05H7.707l2.05-2.05zm2.732 3.05l2.453 12.27-7.36-12.27h4.907zm.214 10.478L2.864 12.01h3.554l6.286 10.478zM25.582 12.01h3.555l-9.842 10.48 6.287-10.48zm.125-1l-2.693-2.693 2.297-1.915 4.608 4.608h-4.21zM6.687 6.4l2.3 1.917-2.694 2.693H2.006l4.68-4.61z" fill="#444"/></svg>