<svg xmlns="http://www.w3.org/2000/svg" width="32" height="32" viewBox="0 0 32 32"><path d="M27 4.996L5 5c-.553 0-1 .443-1 .996v14c0 .553.447 1 1 1h22c.553 0 1-.447 1-1v-14c0-.553-.447-1-1-1zM27 20H5V5.996h22V20zm2-19H3C1.343 1 0 2.342 0 4v20c0 1.654 1.338 2.994 2.99 2.998H13v1.217l-6.242.81c-.446.112-.758.512-.758.97 0 .554.447 1 1 1h18c.553 0 1-.446 1-1 0-.458-.312-.858-.758-.97L19 28.215v-1.217h10.01C30.662 26.994 32 25.654 32 24V4c0-1.658-1.344-3-3-3zm1 23c0 .55-.45 1-1 1H3c-.552 0-1-.45-1-1V4c0-.552.448-1 1-1h26c.55 0 1 .448 1 1v20z" fill="#444"/></svg>