<svg xmlns="http://www.w3.org/2000/svg" width="32" height="32" viewBox="0 0 32 32"><path d="M31.965 15.776c-.01-.042-.004-.087-.02-.128-.006-.017-.02-.026-.027-.042-.01-.024-.008-.05-.02-.074-2.9-5.55-9.214-9.528-15.874-9.528S3.05 9.974.15 15.524c-.014.024-.012.05-.022.075-.007.015-.02.024-.027.04-.015.042-.01.087-.02.13-.017.074-.034.146-.034.223s.018.148.035.224c.01.042.005.087.02.128.007.017.022.026.028.042.01.024.008.05.02.074 2.902 5.552 9.215 9.53 15.876 9.53 6.66 0 12.973-3.972 15.873-9.522.014-.023.012-.05.02-.074.007-.016.022-.025.028-.042.016-.04.01-.086.02-.128.017-.076.035-.148.035-.224s-.018-.15-.035-.224zm-15.942 8.212c-5.615 0-11.112-3.19-13.85-7.995 2.753-4.81 8.242-7.99 13.85-7.99 5.613 0 11.11 3.192 13.85 7.995-2.754 4.81-8.242 7.99-13.85 7.99zm0-11.99c.276 0 .498.224.498.5s-.222.5-.497.5c-1.654 0-3 1.346-3 2.998 0 .276-.223.5-.498.5s-.5-.224-.5-.5c0-2.205 1.787-3.992 3.992-3.996h.006zM16 9c-3.867 0-7 3.134-7 7s3.134 7 7 7c3.865 0 7-3.135 7-7 0-3.867-3.135-7-7-7zm0 13c-3.31 0-6-2.69-6-6s2.69-6 6-6 6 2.69 6 6-2.69 6-6 6z" fill="#444"/></svg>