<svg xmlns="http://www.w3.org/2000/svg" width="32" height="32" viewBox="0 0 32 32"><path d="M22 9c-.062 2.675-2.07 4.934-2.07 4.934C19.93 8.958 16 5 16 5s-.053 2.962-2.043 5.948C11.967 3.98 5.995 0 5.995 0 8.98 10.948 5 14.93 5 22.892 5 27.562 8.954 32 15 32c8.957 0 10.69-3.288 11.615-6.993C27.89 19.907 25.98 13.977 22 9zm2.676 15.52C24.033 27.09 23.306 30 15 30c-5.008 0-8-3.614-8-7.108 0-2.676.488-4.873 1.004-7.2.656-2.948 1.328-5.967 1.037-9.96 3.085 4.27 4.183 9.925 4.183 9.925s2.87-4.03 3.643-5.903C17.456 10.957 18 15 18 19c0 0 2.656-2.188 4.648-5.478 2.098 3.762 2.854 7.695 2.028 11zm-2.244-7.725l.186 1.035c.416 2.318.183 5.058-.592 6.982-.078.195-.266.313-.463.313-.063 0-.127-.012-.188-.036-.256-.104-.38-.395-.277-.65.584-1.45.83-3.49.674-5.354-1.004 1.122-2.27 2.29-4.972 3.575l-.506.24-.182-.528c-.362-1.05-.727-2.11-.885-3.59-.54.853-1.035 1.613-1.865 2.743l-.508.692-.352-.784c-.86-1.925-1.517-3.428-2.037-4.75-.48 1.545-.84 3.332-.84 6.94 0 .277-.225.5-.5.5-.277 0-.5-.223-.5-.5 0-4.708.625-6.522 1.285-8.443l.52-1.51.48 1.35c.514 1.45 1.192 3.05 2.15 5.212.633-.893 1.057-1.565 1.57-2.376l1.517-2.378v1.71c0 1.923.346 3.18.727 4.322 2.66-1.338 3.655-2.502 4.708-3.73l.85-.985z" fill="#444"/></svg>