<svg xmlns="http://www.w3.org/2000/svg" width="32" height="32" viewBox="0 0 32 32"><path d="M29.5 21h-2.69c-.046-.24-.1-.473-.16-.706l4.798-2.4c.494-.246.693-.847.447-1.34-.248-.495-.846-.693-1.342-.448l-4.578 2.288C24.23 14.626 20.42 12 16 12c-5.382 0-9.865 3.888-10.81 9H2.5C1.122 21 0 22.12 0 23.5c0 .49.18.963.505 1.33L4 28.76v.74C4 30.88 5.122 32 6.5 32h19c1.38 0 2.5-1.12 2.5-2.5v-.74l3.494-3.93c.326-.367.506-.84.506-1.33 0-1.38-1.12-2.5-2.5-2.5zm-3.7 0h-.563l.498-.25c.02.084.046.165.064.25zM16 13c4.03 0 7.5 2.4 9.082 5.84l-.89.446C22.774 16.17 19.644 14 16 14c-4.282 0-7.86 2.993-8.77 7H6.202c.93-4.56 4.97-8 9.798-8zm4.576 8c-.773-1.763-2.53-3-4.576-3s-3.802 1.237-4.576 3H10.35c.826-2.326 3.043-4 5.65-4 2.465 0 4.588 1.496 5.508 3.627l-.932.373zM16 20c-.883 0-1.67.39-2.22 1h-1.224c.694-1.19 1.97-2 3.444-2 1.473 0 2.75.81 3.443 2h-1.225c-.548-.61-1.335-1-2.218-1zm0-4c-3.165 0-5.842 2.112-6.705 5H8.263c.892-3.444 4.017-6 7.737-6 3.246 0 6.043 1.948 7.295 4.734l-.893.446C21.314 17.723 18.855 16 16 16zm10 12v1.5c0 .276-.225.5-.5.5h-19c-.276 0-.5-.224-.5-.5V28l-4-4.5c0-.276.224-.5.5-.5h27c.275 0 .5.224.5.5L26 28zM7.977 11.712l-.018-.042c-.52-1.253-.004-2.482.462-3.59.44-1.053.832-1.985.428-2.894l-.005-.012-.003-.01V5.16c-.02-.054-.033-.11-.033-.17 0-.27.218-.49.49-.49.207 0 .384.13.455.313.558 1.27.05 2.52-.422 3.647-.438 1.042-.794 2.01-.42 2.892.003.007.003.013 0 .02.012.04.02.082.02.125 0 .277-.226.503-.503.503-.194 0-.36-.11-.443-.27h-.002l-.008-.018zm12.177-.146l-.016-.04c-.52-1.253-.004-2.483.46-3.592.443-1.052.833-1.984.43-2.893 0-.003-.003-.007-.005-.01l-.004-.01v-.006c-.02-.053-.034-.11-.034-.17 0-.27.22-.49.49-.49.21 0 .385.13.457.314.558 1.27.05 2.52-.422 3.647-.437 1.042-.792 2.01-.42 2.892.005.007.005.013.003.02.01.04.018.082.018.125 0 .277-.226.503-.503.503-.193 0-.36-.11-.443-.27h-.002c-.002-.007-.004-.013-.008-.02zM15.02 7.212l-.02-.04c-.52-1.254-.004-2.484.462-3.593.44-1.053.832-1.985.428-2.894 0-.004-.003-.008-.004-.012l-.003-.01V.66c-.02-.054-.033-.11-.033-.17 0-.27.22-.49.49-.49.21 0 .385.13.457.314.558 1.27.05 2.52-.422 3.647-.438 1.043-.794 2.01-.42 2.893.003.007.003.013 0 .02.012.04.02.082.02.125 0 .277-.226.503-.503.503-.193 0-.36-.11-.443-.27h-.003l-.008-.018z" fill="#444"/></svg>