<svg xmlns="http://www.w3.org/2000/svg" width="32" height="32" viewBox="0 0 32 32"><path d="M22.004 0c-5.523 0-10 4.478-10 10 0 1.285.27 2.5.713 3.63L.567 25.776C.218 26.13 0 26.463 0 27v3c0 1.07.93 2 2 2h3c.536 0 .875-.215 1.226-.564L7.66 30h2.344c1.104 0 2-.896 2-2v-2h2c1.104 0 2-.896 2-2v-2.344l2.37-2.37c1.128.444 2.343.714 3.63.714 5.52 0 10-4.478 10-10s-4.48-10-10-10zm0 18c-1.48 0-2.852-.43-4.04-1.132l-.345.343-3.03 3.032c-.376.375-.587.883-.587 1.414V24h-2c-1.104 0-2 .895-2 2v2H7.66c-.53 0-1.038.21-1.413.586L4.83 30.004 2.002 30 2 27.15l11.665-11.644v.002l1.47-1.47c-.702-1.188-1.132-2.56-1.132-4.04 0-4.417 3.583-8 8-8s8 3.583 8 8-3.58 8.002-8 8.002zm5.816-9.76c-1.12-1.563-2.486-2.926-4.055-4.055-.255-.185-.585-.23-.882-.127-1.39.49-2.34 1.44-2.826 2.828-.037.104-.055.212-.055.32 0 .198.062.395.182.562 1.125 1.564 2.488 2.928 4.053 4.053.256.185.584.232.88.13 1.392-.487 2.343-1.44 2.83-2.83.038-.103.056-.21.056-.318 0-.2-.064-.396-.183-.563zm-3 2.77C23.342 9.947 22.055 8.66 21 7.217c.387-1.103 1.11-1.827 2.182-2.22 1.48 1.064 2.764 2.348 3.816 3.81-.39 1.095-1.113 1.815-2.178 2.203z" fill="#444"/></svg>