<svg xmlns="http://www.w3.org/2000/svg" width="32" height="32" viewBox="0 0 32 32"><path d="M29.164 10.472c-1.25-.328-4.19-.324-8.488-.438.203-.938.25-1.784.25-3.286C20.926 3.16 18.312 0 16 0c-1.633 0-2.98 1.335-3 2.977-.022 2.014-.645 5.492-4 7.256-.246.13-.95.477-1.053.522L8 10.8c-.525-.453-1.253-.8-2-.8H3c-1.654 0-3 1.346-3 3v16c0 1.654 1.346 3 3 3h3c1.19 0 2.186-.72 2.668-1.727.012.004.033.01.047.012l.24.062.045.012c.576.142 1.685.407 4.055.952.508.116 3.192.688 5.972.688h5.467c1.666 0 2.867-.64 3.582-1.928.01-.02.24-.47.428-1.076.14-.457.193-1.104.023-1.76 1.074-.738 1.42-1.854 1.645-2.58.377-1.19.264-2.086.002-2.727.604-.57 1.12-1.44 1.336-2.767.135-.822-.01-1.668-.39-2.372.567-.635.825-1.435.855-2.175l.012-.21c.007-.13.013-.21.013-.5 0-1.262-.875-2.873-2.836-3.433zM7 29c0 .553-.447 1-1 1H3c-.553 0-1-.447-1-1V13c0-.553.447-1 1-1h3c.553 0 1 .447 1 1v16zm22.977-14.465C29.957 15.03 29.75 16 28 16h-2c-.277 0-.5.224-.5.5s.223.5.5.5h1.938s1.697 1.244 1.6 1.844c-.124.746-.474 2.156-2.163 2.156H25c-.277 0-.5.223-.5.5 0 .275.223.5.5.5h1.97c1.687 0 1.538 1.287 1.296 2.055-.32 1.01-.514 1.945-2.64 1.945h-1.632c-.277 0-.5.223-.5.5 0 .275.223.5.5.5h1.568c1.094 0 1.145 1.035 1.03 1.406-.124.406-.272.707-.278.72-.302.546-.79.874-1.82.874h-5.467c-2.746 0-5.47-.623-5.54-.64-4.154-.956-4.373-1.03-4.634-1.104 0 0-.846-.143-.846-.88L8 13.562c0-.47.3-.893.794-1.042.062-.023.146-.05.206-.074 4.568-1.892 5.96-6.04 6-9.446.006-.48.375-1 1-1 1.057 0 2.926 2.122 2.926 4.748 0 2.37-.096 2.78-.926 5.252 10 0 9.93.144 10.812.375 1.094.313 1.188 1.22 1.188 1.53 0 .344-.01.294-.023.63zM4.5 26c-.828 0-1.5.672-1.5 1.5S3.672 29 4.5 29 6 28.328 6 27.5 5.328 26 4.5 26zm0 2c-.275 0-.5-.225-.5-.5s.225-.5.5-.5.5.225.5.5-.225.5-.5.5z" fill="#444"/></svg>