<svg xmlns="http://www.w3.org/2000/svg" width="32" height="32" viewBox="0 0 32 32"><path d="M25 0c-2.053 0-3.666 1.41-4.824 3.586l-.02-.012C18.472 6.867 15.968 9 13.225 9H4c-2.243 0-4 2.197-4 5 0 2.805 1.757 5 4 5 1.103.004 1.995.896 1.995 2v9c0 1.105.896 2 2 2h4c1.104 0 2-.895 2-2v-1c0-1-1-1.447-1-2v-7c0-.023.016-.04.018-.062.01-.143.05-.275.112-.395.018-.033.037-.06.06-.088.08-.12.18-.217.303-.293.006-.004.008-.01.014-.014.004 0 .007-.004.01-.004.08-.045.177-.055.267-.08 2.523.268 4.808 2.305 6.376 5.373l.025-.012C21.34 26.595 22.95 28 25 28c4.596 0 7-7.043 7-14S29.596 0 25 0zm-5 14c0-1.037.06-2.04.164-3H23c1.104 0 2 1.344 2 3 0 1.658-.896 3-2 3h-2.836c-.103-.96-.164-1.96-.164-3zM2 14c0-1.656.896-3 2-3h7.014c-.62.73-1.014 1.787-1.014 3 0 1.215.394 2.273 1.014 3H4c-1.104 0-2-1.342-2-3zm9.995 16h-4v-9c0-.73-.195-1.41-.537-2h.698v.012h3.008c-.107.31-.17.64-.17.988v7c0 .963.54 1.604.86 1.986.044.053.096.107.14.166V30zm1.23-12.988H13V17c-1.104 0-2-1.342-2-3 0-1.656.896-3 2-3h.226c1.886 0 3.652-.742 5.206-2.018C18.146 10.592 18 12.297 18 14c0 1.71.146 3.42.434 5.03-1.555-1.276-3.322-2.018-5.208-2.018zM25 26c-2.018 0-3.75-2.87-4.54-7H23c2.242 0 4-2.195 4-5 0-2.803-1.758-5-4-5h-2.54c.79-4.127 2.522-7 4.54-7 2.762 0 5 5.373 5 12s-2.238 12-5 12z" fill="#444"/></svg>