<svg xmlns="http://www.w3.org/2000/svg" width="32" height="32" viewBox="0 0 32 32"><path d="M31.286.47C30.923.163 30.468 0 30 0c-.114 0-.23.01-.347.03l-17.002 3C11.696 3.2 11 4.03 11 5v17.17C9.983 21.434 8.666 21 7.204 21c-.85 0-1.7.14-2.53.416C2.78 22.05 1.256 23.318.5 24.9c-.584 1.223-.66 2.553-.214 3.746C1.046 30.684 3.21 32 5.794 32c.85 0 1.7-.14 2.528-.416 1.897-.63 3.42-1.9 4.175-3.48.325-.682.477-1.396.483-2.104h.018V10c.115 0 .232-.01.348-.03L30 7.033V19.17c-1.015-.736-2.33-1.17-3.794-1.17-.85 0-1.7.14-2.53.416-1.897.633-3.42 1.902-4.173 3.484-.584 1.223-.66 2.553-.215 3.746C20.05 27.684 22.21 29 24.796 29c.85 0 1.7-.14 2.53-.416 1.895-.63 3.417-1.9 4.173-3.48.325-.682.476-1.396.483-2.104H32V2c0-.59-.26-1.152-.714-1.53zM7.688 29.687c-2.396.8-4.873.018-5.53-1.74-.657-1.76.752-3.834 3.147-4.633 2.396-.8 4.873-.02 5.53 1.74.658 1.76-.75 3.834-3.147 4.633zm18.965-3c-2.398.8-4.875.018-5.53-1.74-.66-1.76.75-3.834 3.145-4.633 2.398-.8 4.875-.02 5.53 1.74.66 1.76-.748 3.834-3.145 4.633zM29.96 5L12.958 8V5L29.96 2v3z" fill="#444"/></svg>