<svg xmlns="http://www.w3.org/2000/svg" width="32" height="32" viewBox="0 0 32 32"><path d="M31.414 7.585l-6-6C25.04 1.21 24.53 1 24 1H3C1.346 1 0 2.345 0 4v24c0 1.654 1.346 3 3 3h26c1.654 0 3-1.346 3-3V9c0-.53-.21-1.04-.586-1.415zM30 28c0 .553-.447 1-1 1H3c-.553 0-1-.447-1-1V4c0-.553.447-1 1-1h20v4h-.002c0 1.657 1.344 3 3 3H30v18zM26.998 9h-1c-1.102 0-2-.897-2-2H24V3l6 6h-3.002zM15.5 8c-.276 0-.5-.223-.5-.5s.224-.5.5-.5h5c.275 0 .5.224.5.5s-.225.5-.5.5h-5zm0 3c-.276 0-.5-.224-.5-.5s.224-.5.5-.5h5c.275 0 .5.224.5.5s-.225.5-.5.5h-5zm-.5 2.5c0-.277.224-.5.5-.5h12c.275 0 .5.224.5.5s-.225.5-.5.5h-12c-.276 0-.5-.224-.5-.5zM27.5 19c.275 0 .5.223.5.5 0 .275-.225.5-.5.5h-23c-.276 0-.5-.225-.5-.5 0-.277.224-.5.5-.5h23zm0 3c.275 0 .5.223.5.5 0 .275-.225.5-.5.5h-23c-.276 0-.5-.225-.5-.5 0-.277.224-.5.5-.5h23zm0 3c.275 0 .5.223.5.5 0 .275-.225.5-.5.5h-23c-.276 0-.5-.225-.5-.5 0-.277.224-.5.5-.5h23zm0-9c.275 0 .5.224.5.5s-.225.5-.5.5h-23c-.276 0-.5-.223-.5-.5s.224-.5.5-.5h23zM5 14h7c.553 0 1-.447 1-1V7c0-.553-.447-1-1-1H5c-.553 0-1 .447-1 1v6c0 .552.447 1 1 1zm1-6h5v4H6V8z" fill="#444"/></svg>