<svg xmlns="http://www.w3.org/2000/svg" width="32" height="32" viewBox="0 0 32 32"><path d="M8 6.02V3c0-1.654-1.346-3-3-3S2 1.346 2 3v3.02C.792 6.937 0 8.37 0 10s.792 3.064 2 3.977V29c0 1.654 1.346 3 3 3s3-1.346 3-3V13.977c1.208-.912 2-2.346 2-3.977s-.792-3.064-2-3.98zM4 3c0-.553.447-1 1-1s1 .447 1 1v2.1c-.323-.065-.657-.1-1-.1s-.677.035-1 .1V3zm2 26c0 .553-.447 1-1 1s-1-.447-1-1V14.898c.323.067.657.102 1 .102s.677-.035 1-.102V29zm1.865-18.16c-.016.053-.03.105-.05.158-.094.264-.216.514-.377.736l-.014.016c-.174.238-.38.45-.616.627l-.01.008c-.24.182-.51.328-.8.43-.312.113-.645.185-.998.185s-.686-.072-1-.186c-.29-.102-.558-.248-.8-.43l-.01-.008c-.234-.178-.44-.39-.615-.627-.004-.007-.01-.01-.014-.017-.16-.223-.282-.473-.377-.736-.02-.053-.033-.105-.05-.158C2.056 10.57 2 10.292 2 10c0-.295.055-.574.135-.842.016-.053.03-.105.05-.156.093-.264.215-.514.377-.738l.014-.016c.174-.236.38-.45.616-.627.004 0 .007-.005.01-.007.24-.18.51-.326.798-.43.314-.11.647-.183 1-.183s.686.072 1 .184c.29.104.558.25.8.43.002.002.005.006.01.008.234.178.44.39.615.627l.014.015c.16.223.282.473.376.737.02.05.034.103.05.156.08.268.134.547.134.842 0 .293-.055.572-.135.84zM30 6.02V3c0-1.654-1.346-3-3-3s-3 1.346-3 3v3.02c-1.21.916-2 2.35-2 3.98s.79 3.064 2 3.977V29c0 1.654 1.346 3 3 3s3-1.346 3-3V13.977c1.207-.912 2-2.346 2-3.977s-.793-3.064-2-3.98zM26 3c0-.553.447-1 1-1s1 .447 1 1v2.1c-.324-.065-.658-.1-1-.1-.344 0-.678.035-1 .1V3zm2 26c0 .553-.447 1-1 1s-1-.447-1-1V14.898c.322.067.656.102 1 .102.342 0 .676-.035 1-.102V29zm1.865-18.16c-.016.053-.03.105-.05.158-.095.264-.216.514-.378.736l-.014.016c-.174.238-.38.45-.615.627l-.01.008c-.242.182-.51.328-.8.43-.312.113-.646.185-.998.185-.354 0-.686-.072-1-.186-.29-.102-.56-.248-.8-.43l-.01-.008c-.235-.178-.442-.39-.616-.627-.004-.007-.01-.01-.014-.017-.16-.223-.283-.473-.377-.736-.02-.053-.033-.105-.05-.158-.078-.268-.133-.547-.133-.84 0-.295.055-.574.135-.842.016-.053.03-.105.05-.156.093-.264.216-.514.376-.738l.015-.016c.174-.236.38-.45.617-.627.004 0 .006-.005.01-.007.24-.18.51-.326.8-.43.312-.11.644-.183.998-.183.352 0 .686.072 1 .184.29.104.557.25.8.43 0 .002.005.006.01.008.233.178.44.39.614.627l.014.015c.162.225.283.475.38.738.017.05.032.104.048.156.08.266.134.545.134.84 0 .293-.055.572-.135.84zM19 18.02V3c0-1.654-1.346-3-3-3s-3 1.346-3 3v15.02c-1.208.915-2 2.35-2 3.98s.792 3.064 2 3.977V29c0 1.654 1.346 3 3 3s3-1.346 3-3v-3.023c1.207-.912 2-2.346 2-3.977s-.793-3.064-2-3.98zM15 3c0-.553.447-1 1-1s1 .447 1 1v14.1c-.324-.064-.658-.1-1-.1-.343 0-.677.035-1 .1V3zm2 26c0 .553-.447 1-1 1s-1-.447-1-1v-2.102c.323.067.657.102 1 .102.342 0 .676-.035 1-.102V29zm1.865-6.16c-.016.053-.03.105-.05.158-.095.264-.216.514-.378.736l-.014.016c-.174.238-.38.45-.615.627l-.01.008c-.242.182-.51.328-.8.43-.312.113-.646.185-.998.185s-.686-.072-1-.186c-.29-.102-.558-.248-.8-.43l-.01-.008c-.234-.178-.44-.39-.615-.627-.004-.007-.01-.01-.014-.017-.16-.223-.282-.473-.377-.736-.02-.053-.033-.105-.05-.158-.078-.268-.133-.547-.133-.84 0-.295.055-.574.135-.842.016-.053.03-.105.05-.156.094-.264.216-.514.377-.738l.014-.016c.174-.236.38-.45.616-.627.004 0 .007-.005.01-.007.24-.18.51-.326.8-.43.312-.11.645-.183.998-.183.352 0 .686.072 1 .184.29.104.557.25.8.43 0 .002.005.006.01.008.233.178.44.39.614.627l.014.015c.162.225.283.475.38.738.017.05.032.104.048.156.08.266.134.545.134.84 0 .293-.055.572-.135.84z" fill="#444"/></svg>