<svg xmlns="http://www.w3.org/2000/svg" width="32" height="32" viewBox="0 0 32 32"><path d="M29.395 2.58C27.75.937 25.585 0 23.45 0c-1.802 0-3.46.668-4.67 1.877L13.91 6.78c-.015.015-.032.024-.047.04-.008.007-.013.018-.02.025v.002L3.518 17.257c-.476.472-.82 1.06-1.013 1.704l-2.35 8.51c0 .022-.154.69-.154 1.03C0 30.432 1.57 32 3.504 32c.385 0 1.13-.184 1.157-.188l8.48-2.23c.643-.19 1.228-.538 1.704-1.015l15.263-15.383c2.776-2.778 2.463-7.434-.712-10.604zm-13.38 21.215c-.083-.902-.338-1.787-.72-2.627l9.455-9.454c.578 1.826.28 3.736-.986 5.004-.008.008-.018.013-.025.02l.013.014-7.728 7.79c0-.25.012-.493-.01-.747zm-1.222-3.54c-.373-.612-.797-1.204-1.322-1.728-.61-.61-1.31-1.09-2.043-1.492l9.532-9.532c.747.332 1.464.805 2.097 1.438.54.54.96 1.144 1.28 1.772l-9.544 9.544zm-4.307-3.693c-.926-.373-1.896-.586-2.868-.6l7.703-7.76c1.18-1.15 2.897-1.482 4.588-1.063l-9.422 9.422zm-6.32 13.31c-.108.026-.447.112-.677.128-.823-.01-1.49-.678-1.49-1.5.012-.168.08-.457.102-.562l1.053-3.814c1.143-.03 2.373.414 3.34 1.383.982.98 1.444 2.234 1.394 3.39l-3.723.976zm4.708-1.235c-.024-1.342-.57-2.738-1.672-3.838-1.042-1.044-2.406-1.646-3.766-1.7l.996-3.607c.072-.24.215-.477.39-.684 2.007-1.437 5.092-1.013 7.235 1.132 2.267 2.266 2.617 5.586.87 7.568-.115.06-.232.12-.358.156l-3.696.97zM28.69 11.772l-1.683 1.697c0-.227.027-.444.006-.675-.176-1.935-1.078-3.806-2.543-5.27-1.63-1.63-3.79-2.564-5.928-2.57l1.656-1.67C21.028 2.458 22.184 2 23.448 2c1.61 0 3.263.728 4.534 1.995 1.193 1.19 1.904 2.67 2.006 4.168.094 1.397-.367 2.678-1.297 3.61z" fill="#444"/></svg>