<svg xmlns="http://www.w3.org/2000/svg" width="32" height="32" viewBox="0 0 32 32"><path d="M27 0H5C2.79 0 1 1.79 1 4v24c0 2.21 1.79 4 4 4h22c2.21 0 4-1.79 4-4V4c0-2.21-1.79-4-4-4zm2 28c0 1.102-.898 2-2 2H5c-1.103 0-2-.898-2-2V4c0-1.103.897-2 2-2h22c1.102 0 2 .897 2 2v24zM26 4H6c-.553 0-1 .447-1 1v18c0 .553.447 1 1 1h20c.553 0 1-.447 1-1V5c0-.553-.447-1-1-1zm0 1v13.87l-3.25-3.53c-.19-.217-.463-.34-.75-.34s-.56.123-.75.34l-2.604 2.95-7.896-8.95C10.56 9.122 10.287 9 10 9s-.56.123-.75.34L6 13.086V5h20zM6 14.6l4-4.6 8.646 9.8 2.762 3.2H6v-8.4zM22.74 23l-3.428-3.955L22 16l4 4.38V23h-3.26zM20 13c1.656 0 3-1.343 3-3s-1.344-3-3-3c-1.658 0-3 1.343-3 3s1.342 3 3 3zm0-5c1.102 0 2 .897 2 2s-.898 2-2 2c-1.104 0-2-.897-2-2s.896-2 2-2z" fill="#444"/></svg>