<svg xmlns="http://www.w3.org/2000/svg" width="32" height="32" viewBox="0 0 32 32"><path d="M20 .005c-6.627 0-12 5.373-12 12 0 2.026.507 3.933 1.395 5.608L1.05 25.955l.008.006C.406 26.603 0 27.49 0 28.478c0 1.95 1.58 3.53 3.53 3.53.984 0 1.873-.407 2.514-1.06l-.002-.002 8.34-8.34c1.677.89 3.587 1.4 5.618 1.4 6.627 0 12-5.373 12-12s-5.373-12-12-12zM4.795 29.697c-.322.334-.768.543-1.266.543-.976 0-1.766-.79-1.766-1.764 0-.498.21-.943.543-1.266l-.01-.008 8.067-8.066c.705.95 1.545 1.79 2.494 2.498l-8.063 8.063zM20 22.007c-5.522 0-10-4.48-10-10s4.478-10 10-10c5.52 0 10 4.477 10 10s-4.48 10-10 10zm0-17.002c.275 0 .5.224.5.5s-.225.5-.5.5c-3.314 0-6 2.687-6 6 0 .276-.224.5-.5.5s-.5-.224-.5-.5c0-3.866 3.133-7 7-7z" fill="#444"/></svg>