<svg xmlns="http://www.w3.org/2000/svg" width="32" height="32" viewBox="0 0 32 32"><path d="M31.4 11.2l-3-3.998c-.117-.157-.256-.293-.4-.423V2c0-1.104-.896-2-2-2H6C4.895 0 4 .896 4 2v4.78c-.144.13-.283.264-.4.42l-3 4c-.387.515-.6 1.154-.6 1.8v1c0 1.654 1.346 3 3 3v13c0 1.104.896 2 2 2h22c1.104 0 2-.896 2-2V17c1.654 0 3-1.346 3-3v-1c0-.646-.213-1.285-.6-1.8zM26 2v4H6V2h20zM10.193 15h-4.19l4-7h2.19l-2 7zm3.04-7H15.5v7h-4.266l2-7zM16.5 8h2.266l2 7H16.5V8zm3.305 0h2.19l4 7h-4.19l-2-7zM2 14v-1c0-.217.07-.427.2-.6l3-4c.19-.252.485-.4.8-.4h2.852l-4 7H3c-.552 0-1-.447-1-1zm18 16h-7.5V20H20v10zm7 0h-6V20c0-.553-.45-1-1-1h-7.5c-.552 0-1 .447-1 1v10H5V17h22v13zm3-16c0 .553-.447 1-1 1h-1.854l-4-7H26c.314 0 .61.148.8.4l3 4c.13.173.2.383.2.6v1z" fill="#444"/></svg>