<svg xmlns="http://www.w3.org/2000/svg" width="32" height="32" viewBox="0 0 32 32"><path d="M26.998 14.003c0-4.962-4.037-9-9-9V5c-.275 0-.498-.225-.498-.5s.223-.5.5-.5c.01 0 .018.004.025.006 5.508.013 9.967 4.477 9.973 9.986L28 14c0 .276-.225.5-.5.5s-.498-.223-.5-.497h-.002zM9.12.878C8.55.304 7.78 0 7 0c-.387 0-.776.074-1.147.228C4.73.692 4 1.786 4 3v13.757L.88 19.88c-1.173 1.17-1.173 3.07 0 4.24l7 7c.585.587 1.352.88 2.12.88s1.535-.293 2.12-.88L15.243 28h13.756c1.215 0 2.31-.73 2.77-1.852.466-1.12.21-2.412-.65-3.27L9.122.878zm4.708 25.708l-3.12 3.12c-.256.255-.554.294-.708.294s-.452-.04-.707-.293l-7-7C2.038 22.45 2 22.154 2 22s.038-.453.293-.707l3.12-3.12c.01-.01.012-.022.02-.032l8.426 8.427c-.01.007-.023.01-.032.02zM15.242 26c-.155 0-.3.055-.447.088L5.91 17.203c.034-.148.09-.292.09-.446V4.71L27.287 26H15.242zm14.68-.617c-.154.375-.518.617-.924.617H28.7L6 3.297V3c0-.406.242-.77.617-.924C6.74 2.026 6.867 2 7 2c.267 0 .518.104.706.292l22 22c.286.288.372.716.216 1.09zM17.998 2C17.448 2 17 1.55 17 1c0-.553.447-1 1-1 .01 0 .018.004.025.005 7.717.014 13.967 6.27 13.973 13.987L32 14c0 .553-.447 1-1 1-.55 0-.998-.446-1-.996h-.002c0-6.617-5.383-12-12-12V2z" fill="#444"/></svg>