<svg xmlns="http://www.w3.org/2000/svg" width="32" height="32" viewBox="0 0 32 32"><path d="M31.924 18.455L27.922 3.45C27.68 2.595 26.89 2 26 2H6c-.89 0-1.68.596-1.922 1.45L.076 18.454C.026 18.637 0 18.82 0 19v7c0 2.21 1.79 4 4 4h24c2.21 0 4-1.79 4-4v-7c0-.18-.025-.363-.076-.545zM30 26c0 1.102-.898 2-2 2H4c-1.103 0-2-.898-2-2v-7L6 4H26L30 19v7zM23.742 6H8.258c-.453 0-.85.305-.967.743l-3.444 12c-.08.3-.016.62.174.867s.482.39.792.39H9.38l1.447 2.895c.34.677 1.032 1.105 1.79 1.105h6.766c.758 0 1.45-.428 1.79-1.105L22.618 20h4.567c.31 0 .604-.145.793-.39s.252-.567.174-.868l-3.445-12C24.59 6.304 24.194 6 23.74 6zm.54 12h-1.663c-.763 0-1.448.422-1.79 1.105L19.383 22h-6.766l-1.447-2.895C10.828 18.422 10.143 18 9.38 18H5.335L8.258 7h15.484l2.924 11H24.28z" fill="#444"/></svg>