<svg xmlns="http://www.w3.org/2000/svg" width="32" height="32" viewBox="0 0 32 32"><path d="M29.98 6.82c-.096-1.57-1.387-2.817-2.98-2.817h-3V3c0-1.656-1.344-3-3-3H11C9.343 0 8 1.345 8 3v1.002H5c-1.595 0-2.885 1.246-2.98 2.816H2V9c0 1.105.896 2 2 2v17c0 2.21 1.79 4 4 4h16c2.21 0 4-1.79 4-4V11c1.104 0 2-.895 2-2V6.82h-.02zM10 3c0-.553.447-1 1-1h10c.553 0 1 .447 1 1v1H10v-1zm16 25c0 1.102-.898 2-2 2H8c-1.103 0-2-.898-2-2v-17h20v17zm2-20v1H4V7c0-.553.447-1 1-1h22c.553 0 1 .447 1 1v1zM9 28.005h2c.553 0 1-.447 1-1v-13c0-.553-.447-1-1-1H9c-.553 0-1 .447-1 1v13c0 .553.447 1 1 1zm0-14h2v13H9v-13zm6 14h2c.553 0 1-.447 1-1v-13c0-.553-.447-1-1-1h-2c-.553 0-1 .447-1 1v13c0 .553.447 1 1 1zm0-14h2v13h-2v-13zm6 14h2c.553 0 1-.447 1-1v-13c0-.553-.447-1-1-1h-2c-.553 0-1 .447-1 1v13c0 .553.447 1 1 1zm0-14h2v13h-2v-13z" fill="#444"/></svg>