<svg xmlns="http://www.w3.org/2000/svg" width="32" height="32" viewBox="0 0 32 32"><path d="M24.832 11.445C24.646 11.167 24.334 11 24 11h-1c-.553 0-1 .447-1 1v6c0 .553.447 1 1 1h4c.553 0 1-.447 1-1v-1.5c0-.197-.06-.39-.168-.555l-3-4.5zM27 18h-4v-6h1l3 4.5V18zm4.496-2.664l-4-6C26.938 8.5 26.004 8 25 8h-4V6c0-1.654-1.346-3-3-3H3C1.346 3 0 4.346 0 6v11c0 1.654 1.346 3 3 3v3c0 1.654 1.346 3 3 3h1.142c.447 1.72 2 3 3.86 3 1.856 0 3.41-1.28 3.856-3h5.282c.447 1.72 2 3 3.86 3 1.856 0 3.41-1.28 3.856-3H29c1.654 0 3-1.346 3-3v-6c0-.594-.174-1.17-.504-1.664zM3 18c-.552 0-1-.447-1-1V6c0-.553.448-1 1-1h15c.553 0 1 .447 1 1v11c0 .553-.447 1-1 1H3zm8 9c-1.104 0-2-.896-2-2s.896-2 2-2c1.105 0 2 .896 2 2s-.896 2-2 2zm13 0c-1.105 0-2-.896-2-2s.895-2 2-2c1.104 0 2 .896 2 2s-.896 2-2 2zm6-4c0 .553-.447 1-1 1h-1.143c-.447-1.72-2-3-3.857-3-1.86 0-3.412 1.28-3.86 3h-5.28c-.448-1.72-2-3-3.858-3-1.86 0-3.412 1.28-3.86 3H6c-.552 0-1-.447-1-1v-3h13c1.654 0 3-1.346 3-3v-7h4c.334 0 .646.167.832.445l4 6c.11.164.168.358.168.555v6z" fill="#444"/></svg>