<svg xmlns="http://www.w3.org/2000/svg" width="32" height="32" viewBox="0 0 32 32"><path d="M22.17 8.624c-2.707-.557-5.455-.84-8.165-.84s-5.457.283-8.165.84c-.35.072-.636.326-.75.667-1.44 4.382-1.44 8.824 0 13.205.113.34.4.594.75.666 2.708.557 5.455.84 8.165.84 2.71 0 5.458-.283 8.165-.84.352-.072.637-.326.75-.666 1.44-4.38 1.44-8.823 0-13.204-.113-.34-.4-.594-.75-.666zm-.2 13.558c-5.31 1.09-10.62 1.09-15.928 0-1.38-4.193-1.38-8.385 0-12.58 5.31-1.09 10.62-1.09 15.927 0 1.38 4.194 1.38 8.386 0 12.58zM30.853 6.32c-.193-.814-.875-1.422-1.705-1.522C24.79 4.268 20.366 4 16.004 4s-8.783.268-13.143.797c-.83.1-1.51.708-1.704 1.523-1.53 6.423-1.53 12.936 0 19.36.193.814.874 1.422 1.704 1.52 2.1.257 4.216.444 6.33.577-.113.073-.187.147-.187.223 0 .553 3.134 1 7 1s7-.447 7-1c0-.076-.074-.15-.188-.223 2.115-.133 4.23-.32 6.33-.576.83-.1 1.512-.706 1.705-1.52 1.53-6.424 1.53-12.937.002-19.36zm-1.946 18.897c-8.602 1.043-17.204 1.043-25.805 0-1.463-6.145-1.463-12.29 0-18.434 8.602-1.044 17.204-1.044 25.805 0 1.463 6.144 1.463 12.29 0 18.434zM26.506 12c.828 0 1.5-.672 1.5-1.5s-.672-1.5-1.5-1.5-1.5.672-1.5 1.5.672 1.5 1.5 1.5zm0-2c.275 0 .5.225.5.5s-.225.5-.5.5-.5-.225-.5-.5.224-.5.5-.5zm1 12c.275 0 .5.223.5.5 0 .275-.225.5-.5.5h-3c-.277 0-.5-.225-.5-.5 0-.277.223-.5.5-.5h3zm1-3c.275 0 .5.223.5.5 0 .275-.225.5-.5.5h-3c-.277 0-.5-.225-.5-.5 0-.277.223-.5.5-.5h3zm0-3c.275 0 .5.224.5.5s-.225.5-.5.5h-3c-.277 0-.5-.224-.5-.5s.223-.5.5-.5h3zm-15-4.196c.275-.01.5.204.5.48s-.226.508-.5.518l-3.75.257c-.273.027-.527.273-.564.545L9.025 15.5c-.01.275-.245.5-.518.5s-.487-.225-.473-.5l.305-2.786c.045-.272.306-.52.58-.55l4.585-.36z" fill="#444"/></svg>