<svg xmlns="http://www.w3.org/2000/svg" width="32" height="32" viewBox="0 0 32 32"><path d="M21.95 1.15c-8.2-3.284-17.514.702-20.8 8.905-3.285 8.204.703 17.518 8.906 20.802s17.516-.702 20.8-8.905c3.287-8.204-.702-17.516-8.905-20.802zM10.8 29C3.634 26.13.138 17.968 3.007 10.8S14.042.137 21.21 3.008c7.165 2.87 10.66 11.034 7.792 18.2C26.132 28.375 17.967 31.87 10.8 29zm5.95-14.853c-1.026-.41-2.19.088-2.602 1.113s.088 2.19 1.112 2.6c1.025.41 2.19-.088 2.6-1.112s-.087-2.19-1.11-2.6zm-1.118 2.786c-.512-.206-.76-.788-.557-1.3.206-.513.79-.762 1.3-.558.512.205.76.788.557 1.3s-.788.762-1.3.558zm2.602-6.498c-3.076-1.232-6.568.264-7.8 3.34s.264 6.567 3.34 7.8c3.075 1.23 6.567-.264 7.8-3.34s-.263-6.57-3.34-7.8zm-3.716 9.282c-2.048-.82-3.046-3.153-2.227-5.2.82-2.047 3.153-3.046 5.2-2.227 2.05.82 3.047 3.154 2.23 5.2-.822 2.048-3.155 3.048-5.202 2.227zm8.914-.74h-.002c-.817 2.04-2.383 3.557-4.256 4.367-.007.003-.01.01-.02.015-.255.107-.548-.01-.657-.265-.11-.253.01-.547.262-.655 1.645-.705 3.024-2.038 3.743-3.834.103-.256.394-.38.65-.277.256.1.38.392.28.648zm3.433.837c.256.103.38.394.28.65-1.226 3.058-3.577 5.335-6.386 6.548-.013.005-.022.016-.034.022-.254.108-.547-.008-.656-.263-.11-.253.01-.547.262-.655 2.588-1.108 4.754-3.203 5.883-6.023.103-.256.394-.38.65-.278zm-1.857-.743c.256.104.38.395.28.65-1.022 2.55-2.98 4.446-5.32 5.457-.012.006-.018.015-.028.02-.254.108-.547-.01-.656-.263s.01-.548.264-.657h-.002c2.12-.907 3.89-2.62 4.812-4.928.103-.258.394-.382.65-.28zM13.513 8.913c.11.255-.01.548-.263.658-1.646.704-3.025 2.038-3.743 3.832-.103.256-.394.38-.65.278s-.382-.393-.28-.65h.002c.815-2.038 2.382-3.556 4.255-4.366.007-.003.012-.01.02-.014.255-.11.55.007.658.262zm-1.575-3.677c.11.254-.01.547-.262.657C9.088 7 6.923 9.095 5.793 11.914c-.103.257-.394.38-.65.278s-.382-.393-.278-.65C6.09 8.48 8.44 6.206 11.25 4.99c.01-.004.02-.015.03-.02.255-.108.55.01.658.263zm.524 2.494v.002c-2.117.906-3.89 2.62-4.812 4.928-.103.257-.394.38-.65.278-.255-.104-.38-.394-.277-.65 1.02-2.55 2.98-4.447 5.32-5.46.01-.003.016-.013.026-.017.253-.108.547.01.656.263.11.255-.01.548-.263.656z" fill="#444"/></svg>