<svg xmlns="http://www.w3.org/2000/svg" width="32" height="32" viewBox="0 0 32 32"><path d="M15.5 0C6.94 0 0 6.94 0 15.5S6.94 31 15.5 31 31 24.06 31 15.5 24.06 0 15.5 0zm13.475 15H22.98c-.056-2.215-.45-4.33-1.15-6.268 1.35-.563 2.6-1.312 3.737-2.197 2.023 2.27 3.288 5.22 3.408 8.465zM14.947 28.972c-1.662-1.384-3.056-3.18-4.076-5.268 1.31-.41 2.697-.633 4.13-.68v5.95c-.018 0-.035 0-.053-.002zM16.05 2.028c1.887 1.57 3.426 3.673 4.467 6.126-1.426.487-2.94.77-4.518.82v-6.95l.05.004zm1.667.17c2.76.46 5.236 1.748 7.164 3.614-1.046.803-2.19 1.483-3.427 1.998-.91-2.157-2.187-4.064-3.736-5.612zM15 2.025v6.95c-1.577-.052-3.093-.334-4.518-.82 1.04-2.454 2.58-4.557 4.466-6.127.018 0 .034-.002.052-.003zM9.546 7.81C8.31 7.297 7.166 6.617 6.12 5.814c1.926-1.866 4.403-3.155 7.163-3.614-1.55 1.546-2.826 3.453-3.737 5.61zm.56 1.266c1.54.535 3.184.847 4.894.9V15H9.02c.055-2.094.426-4.095 1.085-5.924zM15 16v6.025c-1.577.048-3.102.306-4.54.77-.865-2.063-1.376-4.36-1.44-6.795H15zm-1.717 12.802c-2.473-.41-4.72-1.488-6.545-3.052.985-.683 2.05-1.26 3.188-1.7.872 1.808 2.013 3.413 3.357 4.752zm2.717.173v-5.95c1.432.047 2.82.27 4.13.68-1.022 2.087-2.415 3.884-4.077 5.268-.017 0-.035 0-.053.002zm5.074-4.925c1.137.44 2.2 1.018 3.188 1.7-1.826 1.563-4.072 2.64-6.545 3.052 1.344-1.34 2.484-2.944 3.357-4.752zm-.535-1.256c-1.44-.463-2.964-.72-4.54-.77V16h5.98c-.064 2.435-.576 4.732-1.44 6.794zM16 15V9.975c1.71-.052 3.352-.363 4.895-.898.658 1.83 1.03 3.83 1.084 5.924H16zM5.434 6.535C6.572 7.42 7.82 8.17 9.17 8.732 8.47 10.67 8.075 12.785 8.02 15H2.026c.12-3.245 1.385-6.194 3.41-8.465zM2.024 16h5.997c.063 2.555.597 4.968 1.504 7.137-1.267.494-2.448 1.152-3.538 1.93-2.348-2.336-3.83-5.53-3.96-9.067zm22.99 9.067c-1.09-.778-2.27-1.437-3.54-1.93.91-2.17 1.442-4.583 1.505-7.138h5.995c-.13 3.536-1.614 6.73-3.96 9.067z" fill="#444"/></svg>